<?xml version="1.0" standalone="no"?>
<!DOCTYPE svg PUBLIC "-//W3C//DTD SVG 20010904//EN"
 "http://www.w3.org/TR/2001/REC-SVG-20010904/DTD/svg10.dtd">
<svg version="1.0" xmlns="http://www.w3.org/2000/svg"
 width="3333.000000pt" height="3333.000000pt" viewBox="0 0 3333.000000 3333.000000"
 preserveAspectRatio="xMidYMid meet">

<g transform="translate(0.000000,3333.000000) scale(0.100000,-0.100000)"
fill="#000000" stroke="none">
<path d="M14090 27184 c-198 -113 -438 -409 -727 -899 -46 -76 -83 -143 -83
-148 0 -9 -143 -348 -255 -607 -37 -85 -84 -193 -105 -240 -130 -300 -385
-817 -485 -984 -65 -110 -136 -213 -183 -266 -38 -43 -43 -56 -92 -250 -52
-206 -176 -656 -245 -890 -114 -386 -389 -1150 -414 -1150 -4 0 -15 17 -25 38
-32 66 -127 205 -199 290 -278 329 -719 533 -1257 582 -166 15 -512 12 -691
-5 -697 -67 -1273 -305 -1774 -735 -98 -85 -306 -295 -370 -375 -22 -27 -43
-52 -46 -55 -15 -13 -183 -246 -242 -335 -178 -273 -348 -609 -492 -975 -150
-382 -345 -1069 -345 -1215 0 -75 23 -350 41 -480 10 -79 74 -267 140 -412 17
-37 47 -104 67 -148 20 -44 69 -145 110 -224 533 -1034 1301 -1630 2285 -1772
48 -7 87 -16 87 -21 0 -4 -34 -77 -76 -161 -73 -144 -108 -210 -212 -390 -43
-76 -44 -80 -38 -140 28 -257 112 -629 161 -703 12 -19 8 -29 -46 -110 l-59
-89 0 -95 0 -96 39 -52 c79 -105 125 -239 137 -402 7 -89 7 -90 34 -90 15 0
35 10 47 23 18 20 133 212 133 222 0 3 20 39 45 81 25 41 45 77 45 80 0 2 37
73 83 156 109 200 157 289 382 713 128 241 179 338 295 560 35 66 66 125 70
130 4 6 34 62 66 125 32 63 83 162 114 220 31 58 96 182 145 275 48 94 105
202 125 240 21 39 95 180 165 315 70 135 153 295 185 355 100 191 290 555 363
695 38 74 95 185 127 245 32 61 95 182 140 270 45 88 104 201 130 250 26 50
80 153 120 230 40 77 133 257 208 400 74 143 168 325 210 405 145 281 167 317
297 490 403 535 662 946 895 1415 192 387 309 697 390 1030 22 94 47 181 54
195 7 14 27 50 43 80 17 30 74 141 128 245 54 105 111 215 128 245 38 72 268
548 322 670 24 52 68 151 100 220 227 502 460 1157 560 1575 14 61 28 118 31
127 4 13 -10 25 -56 48 -46 23 -60 35 -56 48 24 84 46 268 46 392 l0 142 -52
-7 c-72 -10 -161 -40 -238 -81 -35 -19 -78 -34 -95 -34 l-30 0 -38 153 c-20
83 -52 193 -71 242 -37 100 -100 230 -116 240 -16 10 -11 36 15 89 25 51 25
66 -1 66 -8 0 -20 11 -26 25 -6 14 -14 25 -17 25 -3 0 -26 -12 -51 -26z
m-3421 -5449 l112 -85 65 0 c50 0 76 6 115 26 l51 25 141 -84 c78 -47 161 -95
184 -108 24 -13 43 -29 43 -35 0 -18 -129 -273 -212 -419 -87 -151 -200 -321
-283 -425 -64 -79 -65 -82 -155 -300 -39 -96 -94 -229 -122 -295 -27 -66 -71
-172 -98 -235 -96 -231 -310 -742 -324 -773 -26 -58 -216 -508 -216 -512 0 -3
-11 -28 -24 -57 -13 -29 -52 -118 -86 -198 -34 -80 -68 -158 -75 -175 -8 -16
-53 -120 -100 -230 -152 -351 -248 -570 -258 -582 -10 -13 -41 -11 -192 14
-199 32 -343 86 -548 205 -472 273 -792 598 -938 950 -75 181 -106 408 -74
553 57 262 140 496 269 753 178 357 392 647 710 961 l135 135 133 47 c210 75
961 336 1088 379 l115 38 165 -24 c91 -14 190 -27 220 -31 l55 -5 28 56 c40
82 36 105 -30 199 l-58 82 -3 103 c-2 56 -1 109 2 117 12 32 55 14 165 -70z"/>
<path d="M25234 21700 c-34 -3 -63 -14 -88 -33 -177 -135 -491 -706 -943
-1712 -115 -255 -117 -262 -149 -435 -144 -793 -302 -1361 -433 -1556 -17 -25
-31 -47 -31 -50 0 -2 21 -53 46 -112 143 -329 133 -301 118 -351 -8 -26 -17
-55 -20 -67 -4 -15 9 -40 46 -89 94 -124 120 -202 120 -360 0 -121 -9 -148
-55 -159 -47 -12 -26 -73 32 -90 15 -5 42 6 94 38 l73 44 63 123 c174 337 916
1820 1115 2229 547 1123 738 1557 738 1675 0 42 -40 195 -100 385 -19 58 -35
107 -36 109 -2 2 -56 -7 -120 -19 l-116 -22 -45 44 c-75 72 -147 205 -204 371
-7 20 -15 37 -19 38 -3 0 -12 2 -20 3 -8 1 -38 -1 -66 -4z"/>
<path d="M23445 21505 c-184 -97 -520 -702 -1051 -1895 -30 -67 -46 -131 -79
-305 -155 -806 -307 -1344 -434 -1528 l-33 -48 25 -52 c68 -145 157 -356 157
-375 0 -11 -9 -41 -20 -67 l-20 -47 54 -72 c99 -130 126 -207 126 -358 0 -113
-11 -145 -54 -156 -43 -11 -48 -51 -10 -81 39 -31 63 -26 137 27 l67 47 175
345 c264 520 873 1738 1025 2050 512 1051 712 1508 711 1622 0 79 -121 498
-144 498 -7 0 -52 -9 -101 -20 -50 -11 -100 -20 -112 -20 -56 0 -191 201 -248
370 l-25 75 -58 3 c-38 1 -68 -3 -88 -13z"/>
<path d="M20119 21312 l-66 -47 -88 -180 c-179 -367 -1049 -2109 -1185 -2375
-155 -301 -304 -581 -330 -620 -9 -14 -22 -54 -29 -90 -31 -166 -141 -280
-357 -370 -79 -33 -265 -84 -348 -96 l-48 -7 7 44 c24 150 87 336 138 408 26
36 37 67 51 146 151 828 315 1419 445 1609 17 24 31 47 31 51 0 6 -45 106
-147 325 -37 80 -37 93 -7 171 l18 46 -51 63 c-100 123 -133 214 -133 365 0
87 1 93 28 117 15 14 35 28 45 31 24 9 21 42 -5 67 -33 31 -75 24 -143 -23
l-60 -42 -570 -1138 c-313 -626 -614 -1229 -667 -1340 -346 -718 -495 -1042
-589 -1279 -64 -160 -74 -208 -61 -280 6 -34 28 -94 47 -134 l36 -73 -20 -40
c-35 -67 -24 -123 31 -155 18 -11 73 -23 136 -31 127 -15 162 -29 230 -90 60
-54 106 -129 143 -235 l27 -75 41 -3 c111 -8 280 143 377 336 l37 73 40 -7
c23 -3 64 -14 91 -24 48 -16 58 -16 191 1 77 10 223 21 325 25 188 7 807 -8
1295 -30 249 -11 273 -11 305 5 19 9 49 19 65 23 26 6 76 43 180 135 17 14 72
62 123 105 91 78 92 79 92 124 0 35 -7 55 -34 92 -89 124 -87 146 41 375 25
44 62 101 83 126 l38 45 -41 55 c-43 57 -130 147 -160 164 -15 9 -12 20 38
118 65 131 114 256 188 482 114 348 140 445 197 733 115 583 242 998 344 1119
l25 29 -90 205 c-49 112 -89 211 -89 219 0 8 9 39 20 68 l20 53 -32 42 c-18
23 -36 44 -39 47 -4 3 -23 34 -42 70 -47 85 -67 165 -67 268 0 99 16 140 60
149 46 9 39 62 -11 88 -39 21 -46 19 -120 -33z"/>
<path d="M21689 21260 c-49 -32 -129 -126 -211 -248 -170 -252 -503 -910 -781
-1542 -85 -195 -85 -196 -122 -400 -20 -113 -43 -232 -51 -265 -7 -33 -29
-136 -49 -230 -58 -272 -138 -580 -187 -715 -62 -172 -104 -263 -144 -317 -13
-17 -24 -36 -24 -41 0 -5 41 -101 91 -213 89 -199 91 -204 79 -243 -7 -23 -18
-52 -25 -66 -12 -23 -10 -28 25 -70 114 -137 145 -219 145 -381 0 -101 -3
-120 -19 -138 -11 -12 -29 -21 -42 -21 -30 0 -36 -12 -23 -47 10 -30 44 -53
77 -53 9 0 48 24 87 53 l69 52 581 1159 c623 1243 839 1686 1072 2195 174 381
253 585 253 654 0 74 -124 497 -146 497 -6 0 -56 -9 -110 -20 -53 -11 -105
-18 -115 -15 -10 3 -43 33 -74 66 -57 62 -135 205 -173 319 l-19 55 -59 3
c-52 2 -65 -1 -105 -28z"/>
<path d="M14047 21159 c-22 -12 -44 -33 -52 -52 -215 -483 -430 -938 -686
-1449 l-181 -363 21 -39 21 -39 -49 -56 c-106 -123 -225 -331 -336 -591 -112
-261 -115 -268 -97 -316 l15 -42 -61 -68 c-88 -99 -137 -173 -202 -304 -81
-163 -105 -240 -140 -445 -95 -551 -198 -940 -276 -1042 l-26 -34 63 -107 c35
-58 83 -126 107 -151 l43 -45 -22 -63 -22 -62 49 -58 c27 -32 75 -86 107 -121
54 -61 57 -67 57 -116 0 -29 -9 -70 -20 -95 -11 -24 -20 -47 -20 -52 0 -5 19
-18 42 -30 l41 -21 19 23 c80 102 240 368 448 744 112 203 155 282 295 540 68
125 325 610 498 941 64 122 122 245 130 275 25 98 138 346 349 769 114 228
239 476 277 550 l71 135 -17 43 c-13 36 -14 45 -3 52 27 17 350 70 425 70 23
0 90 -9 151 -20 l111 -20 204 25 c145 17 247 36 354 65 464 125 912 228 1067
246 53 6 61 10 95 52 81 98 100 119 167 189 38 40 83 79 101 87 26 13 33 24
43 67 18 76 69 176 115 226 48 53 100 81 162 90 41 5 45 8 45 33 0 60 -73 107
-202 131 -57 10 -73 10 -116 -4 -62 -21 -62 -21 -62 -2 0 18 7 18 -110 -5 -93
-18 -96 -18 -138 0 -41 19 -43 19 -93 -2 -49 -20 -58 -21 -189 -11 -76 6 -146
16 -157 22 -15 7 -55 6 -149 -7 -108 -14 -207 -16 -599 -15 -258 1 -626 9
-817 17 -295 13 -352 13 -380 2 -18 -8 -54 -17 -80 -21 -45 -7 -48 -6 -58 20
-13 35 -96 159 -177 264 l-65 84 16 34 c22 47 20 56 -20 76 -42 21 -40 21 -87
-4z"/>
<path d="M14854 16726 c-351 -176 -1109 -763 -2259 -1750 -192 -165 -363 -312
-380 -327 -16 -15 -124 -109 -240 -210 -115 -101 -215 -188 -221 -194 -6 -5
-114 -101 -240 -212 -201 -177 -247 -213 -369 -284 -511 -299 -846 -538 -1070
-763 -111 -112 -201 -232 -231 -313 l-17 -44 36 -77 c42 -92 43 -93 62 -207
29 -165 102 -347 191 -471 160 -226 427 -336 704 -290 52 8 145 22 205 31 215
32 812 133 970 165 28 6 149 30 270 54 121 25 263 54 315 65 72 16 130 21 248
21 144 0 157 2 203 25 36 17 51 21 54 12 8 -25 -1 -77 -15 -91 -8 -8 -116 -85
-240 -172 -670 -470 -582 -399 -897 -722 -155 -159 -488 -491 -740 -738 -690
-675 -988 -955 -1283 -1201 -83 -70 -86 -73 -125 -169 -87 -219 -191 -394
-274 -466 -23 -19 -41 -42 -41 -50 0 -27 -59 -190 -99 -272 -47 -98 -136 -234
-218 -336 -56 -68 -234 -248 -340 -343 -39 -34 -43 -42 -43 -85 0 -90 -56
-255 -133 -387 -47 -82 -169 -246 -241 -325 -240 -262 -618 -571 -1053 -860
-62 -41 -113 -79 -113 -85 0 -14 39 -95 45 -95 16 0 184 76 255 115 182 101
509 314 784 512 443 319 505 370 792 649 1419 1375 2733 2597 3404 3164 36 30
74 63 85 74 26 24 403 325 439 351 15 11 47 34 70 51 22 17 124 86 226 154
506 337 858 596 1175 864 186 157 210 180 405 375 261 262 430 484 533 699
l49 103 -22 97 c-89 386 -266 621 -517 687 -81 22 -773 21 -983 0 -172 -18
-376 -53 -554 -94 -117 -27 -131 -28 -141 -14 -7 9 -39 21 -72 27 l-61 11 72
86 c179 215 494 557 886 964 298 308 295 304 272 331 -5 5 -13 21 -20 36 -13
31 -25 15 128 153 245 221 404 385 479 496 22 34 31 59 31 88 l0 41 -43 0
c-110 0 -260 -44 -408 -120 l-57 -29 -72 50 c-65 46 -70 52 -57 67 158 178
287 340 287 362 0 14 -11 46 -25 72 l-25 48 72 82 c40 46 105 116 145 156 42
41 73 81 73 92 0 25 -32 58 -65 66 l-25 6 33 45 c51 73 159 185 189 197 l28
12 -24 45 c-13 24 -30 45 -38 47 -8 2 -64 -22 -124 -52z"/>
<path d="M18873 15973 c-141 -139 -387 -557 -685 -1163 -117 -240 -268 -551
-268 -555 0 -2 -25 -56 -56 -121 -31 -66 -90 -190 -130 -277 -40 -86 -97 -199
-127 -250 -123 -205 -260 -500 -429 -922 -88 -219 -126 -325 -134 -370 -4 -22
-12 -52 -20 -66 -48 -96 -207 -169 -403 -185 l-83 -7 16 32 c57 110 116 311
116 395 0 44 -5 53 -44 80 -17 12 -17 14 -2 44 9 17 16 49 16 71 0 54 -28 71
-124 81 -50 5 -86 15 -111 30 -50 31 -104 118 -131 210 -25 88 -37 94 -111 56
-126 -64 -264 -238 -447 -564 -44 -77 -46 -84 -31 -105 8 -12 15 -28 15 -37
-1 -8 -37 -53 -82 -100 -130 -138 -154 -177 -279 -468 -219 -508 -332 -790
-417 -1042 -59 -175 -66 -205 -70 -292 -5 -103 11 -176 62 -292 22 -50 23 -54
9 -125 l-15 -72 41 -36 c60 -51 81 -99 88 -198 6 -79 4 -87 -20 -124 -14 -21
-44 -54 -65 -72 -36 -30 -39 -36 -30 -61 11 -32 31 -35 83 -14 26 11 52 42
113 133 288 430 555 906 769 1368 l50 110 99 2 c95 2 108 5 339 82 132 44 243
77 248 72 20 -20 -260 -661 -343 -785 l-32 -47 17 -132 c18 -147 45 -281 64
-315 10 -19 9 -25 -5 -40 -10 -9 -30 -46 -46 -81 -26 -55 -27 -65 -15 -80 46
-51 76 -177 77 -313 0 -43 3 -78 6 -78 3 0 16 12 28 27 325 411 609 895 771
1315 19 48 69 154 111 235 124 240 234 453 364 708 68 132 158 308 200 390
100 192 801 1595 870 1740 29 61 76 160 105 220 29 61 79 166 112 235 62 128
70 145 180 385 66 143 177 403 213 497 24 64 25 91 5 197 -12 61 -13 86 -5
102 7 11 14 53 17 93 4 56 2 79 -11 104 -21 41 -51 42 -125 4 -53 -28 -55 -28
-98 -13 -39 14 -60 41 -32 41 9 0 10 21 6 73 -8 93 -33 176 -62 207 -21 23
-22 27 -10 50 26 45 20 60 -24 60 -34 0 -47 -7 -88 -47z"/>
<path d="M25958 14213 c-121 -126 -303 -476 -804 -1540 -62 -133 -134 -286
-160 -340 -25 -54 -59 -125 -74 -158 -15 -33 -47 -100 -70 -150 -170 -361
-413 -898 -461 -1022 l-44 -112 -62 -1 c-36 0 -63 4 -63 10 0 22 64 239 91
311 16 43 40 88 53 100 13 13 26 42 30 64 17 100 93 442 148 660 71 285 143
511 197 618 l40 77 -66 148 -65 147 16 47 16 47 -48 68 c-68 94 -82 136 -82
242 0 72 3 91 18 104 10 10 24 17 30 17 18 0 14 35 -6 53 -10 10 -28 17 -39
17 -68 0 -310 -387 -499 -796 -333 -720 -352 -762 -537 -1149 -138 -291 -448
-901 -485 -955 -39 -58 -58 -67 -116 -56 -57 11 -63 20 -34 58 39 52 102 171
164 313 91 209 102 245 145 463 46 238 100 483 131 592 72 257 121 391 170
464 19 28 24 43 17 55 -5 9 -35 76 -68 150 l-58 135 14 52 c15 52 15 53 -11
81 -15 15 -42 60 -61 98 -29 58 -35 82 -35 140 -2 125 -2 125 30 143 37 21 36
50 -2 71 -26 15 -29 14 -84 -24 -67 -47 -28 23 -465 -847 -581 -1159 -890
-1810 -964 -2032 -26 -78 -26 -79 -10 -150 8 -40 31 -121 49 -181 l34 -110 33
1 c19 0 60 4 92 8 57 8 58 8 92 -28 45 -48 98 -138 126 -217 13 -35 27 -67 31
-70 36 -25 178 48 248 128 28 31 33 33 43 19 11 -15 19 -15 90 -2 68 13 81 13
114 0 33 -14 40 -14 75 2 41 18 127 16 289 -7 63 -9 90 -8 154 5 97 20 151 20
206 1 39 -14 53 -14 149 1 113 18 250 17 756 -7 274 -13 293 -10 401 60 109
71 318 319 377 445 13 28 58 129 101 223 78 175 167 337 209 383 13 14 38 70
56 125 41 124 94 252 115 275 8 9 36 93 61 186 239 888 416 1448 516 1635 l31
59 -28 62 c-16 35 -41 90 -56 124 -51 110 -51 113 -33 165 l17 47 -35 41 c-63
74 -91 145 -96 243 -5 96 10 138 48 138 24 0 26 18 4 48 -24 34 -64 29 -106
-15z"/>
<path d="M19973 13640 c-468 -39 -862 -219 -1175 -537 -267 -269 -484 -647
-637 -1108 -123 -368 -146 -511 -118 -740 17 -144 64 -272 189 -515 148 -287
327 -523 517 -680 127 -105 176 -137 304 -204 267 -140 491 -186 896 -186 236
0 362 11 508 45 522 119 937 520 1176 1136 68 175 113 318 157 500 62 259 64
233 -21 379 -104 180 -264 496 -284 561 l-18 56 -191 120 c-105 66 -249 157
-321 202 -90 57 -137 81 -155 79 -48 -6 -35 -37 61 -148 50 -58 108 -127 129
-155 69 -93 61 -114 -19 -53 -29 22 -55 38 -57 35 -3 -3 16 -54 42 -113 101
-238 174 -492 174 -610 0 -97 -68 -372 -130 -530 -149 -375 -365 -588 -679
-671 -81 -22 -119 -26 -246 -27 -249 -1 -365 35 -605 191 -314 205 -484 445
-497 703 -5 81 -2 110 20 192 93 347 280 661 560 936 l74 74 194 68 c469 165
574 200 601 200 16 0 77 -7 135 -16 l106 -17 18 24 c18 24 26 94 12 101 -5 2
-18 17 -30 34 -16 23 -22 49 -25 100 -4 88 10 92 91 30 49 -38 67 -46 102 -46
23 0 57 5 74 11 29 11 36 9 76 -19 68 -46 171 -161 201 -223 30 -62 47 -126
48 -176 0 -38 26 -45 53 -15 14 15 17 41 17 141 0 117 -2 126 -38 224 -110
290 -315 487 -611 586 -155 53 -457 80 -678 61z"/>
</g>
</svg>
