<?xml version="1.0" encoding="UTF-8"?>
<!DOCTYPE svg PUBLIC "-//W3C//DTD SVG 1.1//EN" "http://www.w3.org/Graphics/SVG/1.1/DTD/svg11.dtd">
<svg xmlns="http://www.w3.org/2000/svg" version="1.1" width="500px" height="500px" style="shape-rendering:geometricPrecision; text-rendering:geometricPrecision; image-rendering:optimizeQuality; fill-rule:evenodd; clip-rule:evenodd" xmlns:xlink="http://www.w3.org/1999/xlink">
<g><path style="opacity:0.982" fill="#fcfbf6" d="M 455.5,162.5 C 450.199,161.823 444.866,161.323 439.5,161C 404.481,92.6869 348.814,53.0203 272.5,42C 188.451,36.6957 122.451,68.3623 74.5,137C 68.7097,137.31 63.043,138.144 57.5,139.5C 89.6117,84.5873 136.612,49.0873 198.5,33C 289.29,15.0388 364.79,40.8722 425,110.5C 437.419,126.441 447.586,143.774 455.5,162.5 Z"/></g>
<g><path style="opacity:0.998" fill="#020201" d="M 455.5,162.5 C 468.648,164.994 477.148,172.661 481,185.5C 484.855,203.26 482.688,220.26 474.5,236.5C 473.5,236.833 472.833,237.5 472.5,238.5C 468.355,242.835 463.855,246.835 459,250.5C 458.501,255.489 458.334,260.489 458.5,265.5C 457.883,265.611 457.383,265.944 457,266.5C 455.078,259.472 450.911,254.306 444.5,251C 445.056,250.617 445.389,250.117 445.5,249.5C 463.341,244.228 473.507,232.228 476,213.5C 481.959,179.463 467.793,163.963 433.5,167C 414.454,170.379 402.954,181.546 399,200.5C 397.933,211.3 398.6,221.966 401,232.5C 402.674,236.524 404.841,240.191 407.5,243.5C 392.502,242.22 377.502,242.22 362.5,243.5C 359.087,243.483 356.087,242.816 353.5,241.5C 353.978,227.114 355.145,212.781 357,198.5C 358.059,195.382 359.392,192.382 361,189.5C 364.556,186.486 367.556,186.82 370,190.5C 370.333,194.5 370.667,198.5 371,202.5C 381.829,205.083 389.162,201.083 393,190.5C 396.077,176.957 390.91,168.957 377.5,166.5C 369.009,167.326 362.509,171.326 358,178.5C 356.932,173.765 354.099,170.598 349.5,169C 344.467,168.171 339.467,168.338 334.5,169.5C 331.455,193.046 329.788,216.713 329.5,240.5C 324.407,239.819 319.407,238.819 314.5,237.5C 314.665,234.482 314.498,231.482 314,228.5C 313.5,228 313,227.5 312.5,227C 309.902,227.126 307.569,228.126 305.5,230C 303.559,230.743 301.726,230.576 300,229.5C 299.47,215.796 299.97,202.13 301.5,188.5C 317.57,190.768 323.903,184.101 320.5,168.5C 315.36,167.512 310.026,167.179 304.5,167.5C 304.817,163.298 304.483,159.298 303.5,155.5C 301.291,147.061 295.957,144.394 287.5,147.5C 283.993,153.846 281.16,160.513 279,167.5C 270.403,168.647 266.57,173.647 267.5,182.5C 267.507,184.369 267.84,186.036 268.5,187.5C 270.948,188.473 273.615,188.806 276.5,188.5C 276.5,191.167 276.5,193.833 276.5,196.5C 275.833,205.167 275.167,213.833 274.5,222.5C 273.515,226.634 273.182,230.968 273.5,235.5C 267.474,235.949 261.474,236.615 255.5,237.5C 260.08,225.649 257.413,215.815 247.5,208C 240.167,204.667 232.833,201.333 225.5,198C 221.081,193.181 221.748,189.181 227.5,186C 236.112,184.612 240.445,188.279 240.5,197C 256.964,198.206 262.464,191.039 257,175.5C 250.869,169.251 243.369,166.251 234.5,166.5C 222.512,166.101 212.679,170.435 205,179.5C 201.666,186.467 200.666,193.8 202,201.5C 203.343,205.51 205.509,209.01 208.5,212C 215.5,216.229 222.833,219.896 230.5,223C 234.231,225.717 234.398,228.55 231,231.5C 222.636,233.655 214.803,232.488 207.5,228C 198.584,227.941 195.084,232.441 197,241.5C 199.765,245.471 203.598,247.804 208.5,248.5C 200.167,251.167 191.833,251.167 183.5,248.5C 189.412,244.004 192.079,238.004 191.5,230.5C 188.383,230.358 185.883,229.024 184,226.5C 184.213,212.828 184.546,199.161 185,185.5C 181.772,174.282 174.272,168.115 162.5,167C 151.279,165.285 140.612,166.952 130.5,172C 121.591,177.649 118.758,185.482 122,195.5C 126.574,200.15 132.074,201.65 138.5,200C 140.044,195.583 142.378,191.583 145.5,188C 157.975,184.637 162.975,189.47 160.5,202.5C 148.972,202.039 137.972,204.206 127.5,209C 119.577,212.75 114.91,218.917 113.5,227.5C 112.79,229.893 112.123,232.393 111.5,235C 108.487,235.502 105.487,236.002 102.5,236.5C 102.5,233.833 102.5,231.167 102.5,228.5C 102.666,220.493 102.5,212.493 102,204.5C 100.749,201.619 98.5827,199.786 95.5,199C 90.8333,198.333 86.1667,198.333 81.5,199C 80.2986,199.903 79.4652,201.069 79,202.5C 78.5599,209.705 77.2266,216.705 75,223.5C 72.0324,226.602 68.3657,227.935 64,227.5C 58.7584,227.709 55.0917,225.376 53,220.5C 48.5711,204.276 49.9045,188.61 57,173.5C 61.281,167.298 67.1143,164.798 74.5,166C 76.286,166.785 77.786,167.951 79,169.5C 79.9976,174.004 80.8309,178.504 81.5,183C 89.1499,184.004 96.1499,182.337 102.5,178C 109.068,166.907 107.401,157.241 97.5,149C 92.8978,146.133 87.8978,144.466 82.5,144C 50.0583,140.462 30.5583,154.629 24,186.5C 21.4944,201.733 22.4944,216.733 27,231.5C 33.5059,247.506 45.3393,253.672 62.5,250C 68.4027,248.479 72.5694,244.979 75,239.5C 75.8911,242.03 77.0578,244.363 78.5,246.5C 62.5128,262.373 56.0128,281.706 59,304.5C 60.73,317.817 63.23,330.983 66.5,344C 66.4301,344.765 66.0967,345.265 65.5,345.5C 51.4134,316.823 43.4134,286.49 41.5,254.5C 36.6147,252.23 32.2814,249.23 28.5,245.5C 22.5934,238.308 19.0934,229.975 18,220.5C 14.2507,197.656 18.2507,176.322 30,156.5C 37.0305,147.289 46.1972,141.622 57.5,139.5C 63.043,138.144 68.7097,137.31 74.5,137C 122.451,68.3623 188.451,36.6957 272.5,42C 348.814,53.0203 404.481,92.6869 439.5,161C 444.866,161.323 450.199,161.823 455.5,162.5 Z"/></g>
<g><path style="opacity:1" fill="#f4f3ee" d="M 166.5,131.5 C 168.167,131.5 169.833,131.5 171.5,131.5C 171.5,138.167 171.5,144.833 171.5,151.5C 173.833,151.5 176.167,151.5 178.5,151.5C 178.5,153.167 178.5,154.833 178.5,156.5C 174.167,156.5 169.833,156.5 165.5,156.5C 165.782,148.164 166.116,139.831 166.5,131.5 Z"/></g>
<g><path style="opacity:1" fill="#edece7" d="M 133.5,132.5 C 134.833,132.5 136.167,132.5 137.5,132.5C 137.5,134.167 137.5,135.833 137.5,137.5C 134.873,138.092 132.206,138.425 129.5,138.5C 129.5,140.167 129.5,141.833 129.5,143.5C 132.469,142.671 135.469,142.505 138.5,143C 139.38,144.356 139.714,145.856 139.5,147.5C 136.518,147.963 133.518,148.296 130.5,148.5C 130.5,150.167 130.5,151.833 130.5,153.5C 133.881,153.54 137.214,153.207 140.5,152.5C 140.859,154.766 140.192,156.599 138.5,158C 134.778,158.238 131.111,158.738 127.5,159.5C 126.914,159.291 126.414,158.957 126,158.5C 125.083,150.168 124.25,141.834 123.5,133.5C 127.042,133.813 130.375,133.479 133.5,132.5 Z"/></g>
<g><path style="opacity:1" fill="#fbfaf5" d="M 102.5,228.5 C 101.717,235.025 100.883,241.692 100,248.5C 98.6439,249.38 97.1439,249.714 95.5,249.5C 89.4539,250.198 83.7872,249.198 78.5,246.5C 77.0578,244.363 75.8911,242.03 75,239.5C 72.5694,244.979 68.4027,248.479 62.5,250C 45.3393,253.672 33.5059,247.506 27,231.5C 22.4944,216.733 21.4944,201.733 24,186.5C 30.5583,154.629 50.0583,140.462 82.5,144C 87.8978,144.466 92.8978,146.133 97.5,149C 107.401,157.241 109.068,166.907 102.5,178C 96.1499,182.337 89.1499,184.004 81.5,183C 80.8309,178.504 79.9976,174.004 79,169.5C 77.786,167.951 76.286,166.785 74.5,166C 67.1143,164.798 61.281,167.298 57,173.5C 49.9045,188.61 48.5711,204.276 53,220.5C 55.0917,225.376 58.7584,227.709 64,227.5C 68.3657,227.935 72.0324,226.602 75,223.5C 77.2266,216.705 78.5599,209.705 79,202.5C 79.4652,201.069 80.2986,199.903 81.5,199C 86.1667,198.333 90.8333,198.333 95.5,199C 98.5827,199.786 100.749,201.619 102,204.5C 102.5,212.493 102.666,220.493 102.5,228.5 Z"/></g>
<g><path style="opacity:1" fill="#fbfaf3" d="M 303.5,155.5 C 303.5,159.833 303.5,164.167 303.5,168.5C 309.167,168.5 314.833,168.5 320.5,168.5C 323.903,184.101 317.57,190.768 301.5,188.5C 299.97,202.13 299.47,215.796 300,229.5C 301.726,230.576 303.559,230.743 305.5,230C 307.569,228.126 309.902,227.126 312.5,227C 313,227.5 313.5,228 314,228.5C 314.498,231.482 314.665,234.482 314.5,237.5C 312.526,245.321 307.526,249.654 299.5,250.5C 293.612,251.012 287.945,250.345 282.5,248.5C 279.111,246.275 276.611,243.275 275,239.5C 274.501,233.843 274.334,228.176 274.5,222.5C 275.167,213.833 275.833,205.167 276.5,196.5C 277.477,193.713 277.81,190.713 277.5,187.5C 274.5,187.5 271.5,187.5 268.5,187.5C 267.84,186.036 267.507,184.369 267.5,182.5C 266.57,173.647 270.403,168.647 279,167.5C 281.16,160.513 283.993,153.846 287.5,147.5C 295.957,144.394 301.291,147.061 303.5,155.5 Z"/></g>
<g><path style="opacity:1" fill="#fbfaf3" d="M 183.5,248.5 C 175.91,251.715 168.743,251.049 162,246.5C 160.92,244.004 159.586,241.67 158,239.5C 153.271,245.613 147.105,249.28 139.5,250.5C 133.612,251.012 127.945,250.345 122.5,248.5C 115.074,243.596 112.074,236.596 113.5,227.5C 114.91,218.917 119.577,212.75 127.5,209C 137.972,204.206 148.972,202.039 160.5,202.5C 162.975,189.47 157.975,184.637 145.5,188C 142.378,191.583 140.044,195.583 138.5,200C 132.074,201.65 126.574,200.15 122,195.5C 118.758,185.482 121.591,177.649 130.5,172C 140.612,166.952 151.279,165.285 162.5,167C 174.272,168.115 181.772,174.282 185,185.5C 184.546,199.161 184.213,212.828 184,226.5C 185.883,229.024 188.383,230.358 191.5,230.5C 192.079,238.004 189.412,244.004 183.5,248.5 Z"/></g>
<g><path style="opacity:1" fill="#faf9f3" d="M 255.5,237.5 C 251.366,244.101 245.366,248.268 237.5,250C 227.685,251.022 218.018,250.522 208.5,248.5C 203.598,247.804 199.765,245.471 197,241.5C 195.084,232.441 198.584,227.941 207.5,228C 214.803,232.488 222.636,233.655 231,231.5C 234.398,228.55 234.231,225.717 230.5,223C 222.833,219.896 215.5,216.229 208.5,212C 205.509,209.01 203.343,205.51 202,201.5C 200.666,193.8 201.666,186.467 205,179.5C 212.679,170.435 222.512,166.101 234.5,166.5C 243.369,166.251 250.869,169.251 257,175.5C 262.464,191.039 256.964,198.206 240.5,197C 240.445,188.279 236.112,184.612 227.5,186C 221.748,189.181 221.081,193.181 225.5,198C 232.833,201.333 240.167,204.667 247.5,208C 257.413,215.815 260.08,225.649 255.5,237.5 Z"/></g>
<g><path style="opacity:1" fill="#545452" d="M 303.5,155.5 C 304.483,159.298 304.817,163.298 304.5,167.5C 310.026,167.179 315.36,167.512 320.5,168.5C 314.833,168.5 309.167,168.5 303.5,168.5C 303.5,164.167 303.5,159.833 303.5,155.5 Z"/></g>
<g><path style="opacity:1" fill="#fbfaf4" d="M 353.5,241.5 C 352.79,243.893 352.123,246.393 351.5,249C 345.245,250.127 339.245,249.46 333.5,247C 331.334,245.322 330.001,243.155 329.5,240.5C 329.788,216.713 331.455,193.046 334.5,169.5C 339.467,168.338 344.467,168.171 349.5,169C 354.099,170.598 356.932,173.765 358,178.5C 362.509,171.326 369.009,167.326 377.5,166.5C 390.91,168.957 396.077,176.957 393,190.5C 389.162,201.083 381.829,205.083 371,202.5C 370.667,198.5 370.333,194.5 370,190.5C 367.556,186.82 364.556,186.486 361,189.5C 359.392,192.382 358.059,195.382 357,198.5C 355.145,212.781 353.978,227.114 353.5,241.5 Z"/></g>
<g><path style="opacity:1" fill="#fcfbf5" d="M 445.5,249.5 C 437.528,250.532 429.528,250.698 421.5,250C 416.39,248.609 411.723,246.442 407.5,243.5C 404.841,240.191 402.674,236.524 401,232.5C 398.6,221.966 397.933,211.3 399,200.5C 402.954,181.546 414.454,170.379 433.5,167C 467.793,163.963 481.959,179.463 476,213.5C 473.507,232.228 463.341,244.228 445.5,249.5 Z"/></g>
<g><path style="opacity:1" fill="#030303" d="M 434.5,186.5 C 446.637,184.97 452.304,190.304 451.5,202.5C 451.969,212.595 448.969,221.428 442.5,229C 433.37,233.853 427.204,231.353 424,221.5C 423.188,213.778 423.522,206.111 425,198.5C 426.92,193.424 430.086,189.424 434.5,186.5 Z"/></g>
<g><path style="opacity:1" fill="#9e9e9a" d="M 268.5,187.5 C 271.5,187.5 274.5,187.5 277.5,187.5C 277.81,190.713 277.477,193.713 276.5,196.5C 276.5,193.833 276.5,191.167 276.5,188.5C 273.615,188.806 270.948,188.473 268.5,187.5 Z"/></g>
<g><path style="opacity:1" fill="#0f0f0d" d="M 150.5,214.5 C 153.167,214.5 155.833,214.5 158.5,214.5C 158.708,223.788 154.375,229.455 145.5,231.5C 139.918,231.011 137.751,228.011 139,222.5C 141.906,218.417 145.739,215.75 150.5,214.5 Z"/></g>
<g><path style="opacity:1" fill="#0f0f04" d="M 274.5,222.5 C 274.334,228.176 274.501,233.843 275,239.5C 276.611,243.275 279.111,246.275 282.5,248.5C 269.096,250.97 256.429,255.637 244.5,262.5C 240.19,261.366 235.856,259.533 231.5,257C 227.5,256.333 223.5,256.333 219.5,257C 210.516,261.48 205.182,268.647 203.5,278.5C 199.204,279.463 194.871,279.629 190.5,279C 187.415,269.592 181.748,262.259 173.5,257C 165.168,256.002 157.335,257.502 150,261.5C 144.157,258.317 138.323,255.15 132.5,252C 135.036,251.814 137.369,251.314 139.5,250.5C 147.105,249.28 153.271,245.613 158,239.5C 159.586,241.67 160.92,244.004 162,246.5C 168.743,251.049 175.91,251.715 183.5,248.5C 191.833,251.167 200.167,251.167 208.5,248.5C 218.018,250.522 227.685,251.022 237.5,250C 245.366,248.268 251.366,244.101 255.5,237.5C 261.474,236.615 267.474,235.949 273.5,235.5C 273.182,230.968 273.515,226.634 274.5,222.5 Z"/></g>
<g><path style="opacity:0.006" fill="#feff00" d="M 474.5,236.5 C 482.832,244.275 487.665,253.942 489,265.5C 491.288,304.023 483.288,340.356 465,374.5C 451.888,392.511 434.055,402.177 411.5,403.5C 418.573,395.767 425.24,387.767 431.5,379.5C 442.38,374.123 450.88,366.123 457,355.5C 470.602,329.33 475.768,301.663 472.5,272.5C 472.5,261.167 472.5,249.833 472.5,238.5C 472.833,237.5 473.5,236.833 474.5,236.5 Z"/></g>
<g><path style="opacity:0.981" fill="#fcfbf4" d="M 28.5,245.5 C 32.2814,249.23 36.6147,252.23 41.5,254.5C 43.4134,286.49 51.4134,316.823 65.5,345.5C 72.6084,358.735 80.9418,371.068 90.5,382.5C 139.462,439.224 201.462,463.724 276.5,456C 333.314,447.938 379.648,421.771 415.5,377.5C 423.729,376.372 430.896,373.039 437,367.5C 437.464,368.094 437.631,368.761 437.5,369.5C 436.167,371.833 434.833,374.167 433.5,376.5C 432.599,377.29 431.932,378.29 431.5,379.5C 425.24,387.767 418.573,395.767 411.5,403.5C 353.123,460.785 283.456,481.952 202.5,467C 162.288,457.9 127.288,439.4 97.5,411.5C 67.268,381.71 46.268,346.377 34.5,305.5C 29.9932,285.765 27.9932,265.765 28.5,245.5 Z"/></g>
<g><path style="opacity:1" fill="#0f0f01" d="M 113.5,227.5 C 112.074,236.596 115.074,243.596 122.5,248.5C 108.117,248.128 95.2839,252.461 84,261.5C 74.4141,273.177 71.0807,286.51 74,301.5C 76.7944,308.914 79.9611,316.081 83.5,323C 71.8775,345.093 77.5441,361.093 100.5,371C 108.701,373.283 117.034,373.95 125.5,373C 133.965,370.514 142.131,367.348 150,363.5C 165.394,371.082 178.061,367.748 188,353.5C 188.49,352.207 188.657,350.873 188.5,349.5C 193.149,348.705 197.816,348.539 202.5,349C 208.64,362.19 218.807,368.024 233,366.5C 236.421,363.61 240.087,361.944 244,361.5C 252.744,366.287 261.911,370.121 271.5,373C 288.526,375.909 303.859,372.243 317.5,362C 321.873,358.489 326.206,354.989 330.5,351.5C 332.5,352 334.5,352.5 336.5,353C 345.436,365.535 357.103,369.202 371.5,364C 375.487,360.154 379.82,356.987 384.5,354.5C 385.833,354.833 387.167,355.167 388.5,355.5C 395.623,363.819 404.623,367.319 415.5,366C 417.772,365.059 419.772,363.726 421.5,362C 432.295,348.24 439.795,332.74 444,315.5C 446.686,302.937 448.852,290.27 450.5,277.5C 450.1,261.252 442.1,255.086 426.5,259C 421.983,261.708 417.65,264.542 413.5,267.5C 413.935,270.613 412.935,271.279 410.5,269.5C 406.655,264.492 401.988,260.326 396.5,257C 383.023,252.406 372.023,255.572 363.5,266.5C 361.257,267.474 358.924,267.808 356.5,267.5C 356.5,266.5 356.5,265.5 356.5,264.5C 351.458,260.645 345.791,257.812 339.5,256C 332.98,254.805 326.814,255.638 321,258.5C 319.667,257.167 318.333,257.167 317,258.5C 310.687,256.761 304.521,254.594 298.5,252C 299.056,251.617 299.389,251.117 299.5,250.5C 307.526,249.654 312.526,245.321 314.5,237.5C 319.407,238.819 324.407,239.819 329.5,240.5C 330.001,243.155 331.334,245.322 333.5,247C 339.245,249.46 345.245,250.127 351.5,249C 352.123,246.393 352.79,243.893 353.5,241.5C 356.087,242.816 359.087,243.483 362.5,243.5C 377.502,242.22 392.502,242.22 407.5,243.5C 411.723,246.442 416.39,248.609 421.5,250C 429.528,250.698 437.528,250.532 445.5,249.5C 445.389,250.117 445.056,250.617 444.5,251C 450.911,254.306 455.078,259.472 457,266.5C 457.383,265.944 457.883,265.611 458.5,265.5C 455.193,302.43 443.193,336.097 422.5,366.5C 422.565,366.062 422.399,365.728 422,365.5C 412.753,371.222 403.586,371.388 394.5,366C 388.167,365.333 381.833,365.333 375.5,366C 364.339,372.22 353.339,371.886 342.5,365C 328.619,364.176 315.619,367.176 303.5,374C 296.804,375.977 289.97,377.144 283,377.5C 267.719,375.777 252.719,372.777 238,368.5C 226.283,372.679 215.783,370.679 206.5,362.5C 199.776,361.122 193.109,361.288 186.5,363C 180.307,368.178 173.141,371.011 165,371.5C 161.196,370.521 157.362,370.355 153.5,371C 142.158,373.215 130.825,375.381 119.5,377.5C 104.065,378.086 91.2313,372.753 81,361.5C 74.1893,350.832 72.6893,339.665 76.5,328C 73.9101,316.384 71.5768,304.717 69.5,293C 69.1613,272.806 77.8279,258.306 95.5,249.5C 97.1439,249.714 98.6439,249.38 100,248.5C 100.883,241.692 101.717,235.025 102.5,228.5C 102.5,231.167 102.5,233.833 102.5,236.5C 105.487,236.002 108.487,235.502 111.5,235C 112.123,232.393 112.79,229.893 113.5,227.5 Z"/></g>
<g><path style="opacity:1" fill="#080900" d="M 78.5,246.5 C 83.7872,249.198 89.4539,250.198 95.5,249.5C 77.8279,258.306 69.1613,272.806 69.5,293C 71.5768,304.717 73.9101,316.384 76.5,328C 72.6893,339.665 74.1893,350.832 81,361.5C 91.2313,372.753 104.065,378.086 119.5,377.5C 130.825,375.381 142.158,373.215 153.5,371C 157.362,370.355 161.196,370.521 165,371.5C 173.141,371.011 180.307,368.178 186.5,363C 193.109,361.288 199.776,361.122 206.5,362.5C 215.783,370.679 226.283,372.679 238,368.5C 252.719,372.777 267.719,375.777 283,377.5C 289.97,377.144 296.804,375.977 303.5,374C 315.619,367.176 328.619,364.176 342.5,365C 353.339,371.886 364.339,372.22 375.5,366C 381.833,365.333 388.167,365.333 394.5,366C 403.586,371.388 412.753,371.222 422,365.5C 422.399,365.728 422.565,366.062 422.5,366.5C 420.646,370.221 418.313,373.554 415.5,376.5C 415.265,375.903 414.765,375.57 414,375.5C 403.134,377.82 392.134,378.82 381,378.5C 366.835,377.756 352.669,377.59 338.5,378C 325.25,379.896 312.25,382.896 299.5,387C 284.778,390.162 270.112,389.829 255.5,386C 241.495,382.665 227.495,379.331 213.5,376C 200.032,373.742 186.698,374.409 173.5,378C 156.082,383.646 138.249,387.146 120,388.5C 109.929,388.44 100.429,386.107 91.5,381.5C 90.8933,381.624 90.56,381.957 90.5,382.5C 80.9418,371.068 72.6084,358.735 65.5,345.5C 66.0967,345.265 66.4301,344.765 66.5,344C 63.23,330.983 60.73,317.817 59,304.5C 56.0128,281.706 62.5128,262.373 78.5,246.5 Z"/></g>
<g><path style="opacity:1" fill="#151600" d="M 122.5,248.5 C 127.945,250.345 133.612,251.012 139.5,250.5C 137.369,251.314 135.036,251.814 132.5,252C 138.323,255.15 144.157,258.317 150,261.5C 157.335,257.502 165.168,256.002 173.5,257C 181.748,262.259 187.415,269.592 190.5,279C 194.871,279.629 199.204,279.463 203.5,278.5C 205.182,268.647 210.516,261.48 219.5,257C 223.5,256.333 227.5,256.333 231.5,257C 235.856,259.533 240.19,261.366 244.5,262.5C 256.429,255.637 269.096,250.97 282.5,248.5C 287.945,250.345 293.612,251.012 299.5,250.5C 299.389,251.117 299.056,251.617 298.5,252C 304.521,254.594 310.687,256.761 317,258.5C 318.333,257.167 319.667,257.167 321,258.5C 326.814,255.638 332.98,254.805 339.5,256C 345.791,257.812 351.458,260.645 356.5,264.5C 356.5,265.5 356.5,266.5 356.5,267.5C 358.924,267.808 361.257,267.474 363.5,266.5C 372.023,255.572 383.023,252.406 396.5,257C 401.988,260.326 406.655,264.492 410.5,269.5C 412.935,271.279 413.935,270.613 413.5,267.5C 417.65,264.542 421.983,261.708 426.5,259C 442.1,255.086 450.1,261.252 450.5,277.5C 448.852,290.27 446.686,302.937 444,315.5C 439.795,332.74 432.295,348.24 421.5,362C 419.772,363.726 417.772,365.059 415.5,366C 404.623,367.319 395.623,363.819 388.5,355.5C 387.167,355.167 385.833,354.833 384.5,354.5C 379.82,356.987 375.487,360.154 371.5,364C 357.103,369.202 345.436,365.535 336.5,353C 334.5,352.5 332.5,352 330.5,351.5C 326.206,354.989 321.873,358.489 317.5,362C 303.859,372.243 288.526,375.909 271.5,373C 261.911,370.121 252.744,366.287 244,361.5C 240.087,361.944 236.421,363.61 233,366.5C 218.807,368.024 208.64,362.19 202.5,349C 197.816,348.539 193.149,348.705 188.5,349.5C 188.657,350.873 188.49,352.207 188,353.5C 178.061,367.748 165.394,371.082 150,363.5C 142.131,367.348 133.965,370.514 125.5,373C 117.034,373.95 108.701,373.283 100.5,371C 77.5441,361.093 71.8775,345.093 83.5,323C 79.9611,316.081 76.7944,308.914 74,301.5C 71.0807,286.51 74.4141,273.177 84,261.5C 95.2839,252.461 108.117,248.128 122.5,248.5 Z"/></g>
<g><path style="opacity:1" fill="#1b1c00" d="M 110.5,251.5 C 124.191,250.586 136.191,254.586 146.5,263.5C 147.939,264.063 149.439,264.397 151,264.5C 154.895,263.943 158.395,262.443 161.5,260C 170.742,257.209 177.576,260.042 182,268.5C 184.648,275.41 187.148,282.41 189.5,289.5C 191.021,290.937 192.855,291.604 195,291.5C 197.817,290.969 200.65,290.636 203.5,290.5C 203.726,286.708 204.56,283.041 206,279.5C 212.528,257.683 224.861,253.35 243,266.5C 247.951,264.898 252.451,262.398 256.5,259C 272.853,251.137 289.52,250.47 306.5,257C 313.424,263.327 320.757,263.994 328.5,259C 335.375,257.595 341.708,258.761 347.5,262.5C 351.883,266.386 356.05,270.386 360,274.5C 365.009,270.991 369.176,266.657 372.5,261.5C 379.391,257.31 386.724,256.477 394.5,259C 400.711,264.377 406.378,270.21 411.5,276.5C 414.798,274.032 417.632,271.032 420,267.5C 426.822,258.717 434.822,257.384 444,263.5C 448.073,268.859 449.406,274.859 448,281.5C 444.903,302.451 439.57,322.785 432,342.5C 428.02,349.624 423.186,356.124 417.5,362C 412.589,363.492 407.589,363.826 402.5,363C 396.622,357.617 390.622,352.45 384.5,347.5C 378.602,352.812 372.602,357.979 366.5,363C 357.496,365.869 349.996,363.702 344,356.5C 341.077,351.739 337.577,347.406 333.5,343.5C 327.35,348.816 321.35,354.316 315.5,360C 292.896,375.644 270.563,375.311 248.5,359C 246.722,358.296 244.888,357.796 243,357.5C 238.757,360.037 234.257,362.204 229.5,364C 221.42,364.878 214.92,362.045 210,355.5C 207.606,349.713 204.94,344.046 202,338.5C 200.538,339.035 198.872,339.035 197,338.5C 194.224,338.767 191.724,339.767 189.5,341.5C 186.939,349.978 182.272,357.145 175.5,363C 167.165,365.746 159.498,364.58 152.5,359.5C 149.456,360.178 146.456,361.011 143.5,362C 126.018,374.29 108.351,374.623 90.5,363C 81.9128,356.171 78.7461,347.338 81,336.5C 82.5252,333.437 84.5252,330.77 87,328.5C 87.6012,326.863 88.1012,325.197 88.5,323.5C 85.0971,318.37 81.9304,313.036 79,307.5C 71.5019,287.006 76.3352,270.173 93.5,257C 99.001,254.221 104.668,252.387 110.5,251.5 Z"/></g>
<g><path style="opacity:0.993" fill="#fbfaed" d="M 472.5,238.5 C 472.5,249.833 472.5,261.167 472.5,272.5C 471.527,274.948 471.194,277.615 471.5,280.5C 466.467,312.604 455.133,342.27 437.5,369.5C 437.631,368.761 437.464,368.094 437,367.5C 430.896,373.039 423.729,376.372 415.5,377.5C 415.5,377.167 415.5,376.833 415.5,376.5C 418.313,373.554 420.646,370.221 422.5,366.5C 443.193,336.097 455.193,302.43 458.5,265.5C 458.334,260.489 458.501,255.489 459,250.5C 463.855,246.835 468.355,242.835 472.5,238.5 Z"/></g>
<g><path style="opacity:1" fill="#eff833" d="M 141.5,278.5 C 141.664,281.187 141.497,283.854 141,286.5C 139.062,287.86 137.396,287.527 136,285.5C 134.085,276.586 128.585,271.42 119.5,270C 104.585,267.609 95.9181,273.776 93.5,288.5C 93.4009,299.568 98.7343,306.401 109.5,309C 119.359,310.173 128.359,313.507 136.5,319C 137.697,321.015 139.03,322.849 140.5,324.5C 144.719,346.109 135.886,357.775 114,359.5C 103.96,359.564 96.1262,355.564 90.5,347.5C 89.2488,344.594 88.7488,341.594 89,338.5C 91.8601,336.923 94.0268,337.59 95.5,340.5C 98.429,349.487 104.762,353.82 114.5,353.5C 123.213,353.652 129.547,349.985 133.5,342.5C 138.067,331.454 134.734,323.621 123.5,319C 118.292,317.198 112.959,316.031 107.5,315.5C 97.5607,312.56 90.894,306.226 87.5,296.5C 85.288,284.799 88.6213,275.132 97.5,267.5C 99.153,267.34 100.486,266.674 101.5,265.5C 113.213,261.892 124.213,263.392 134.5,270C 137.21,272.628 139.544,275.461 141.5,278.5 Z"/></g>
<g><path style="opacity:1" fill="#2a2c00" d="M 433.5,264.5 C 433.5,264.833 433.5,265.167 433.5,265.5C 432.094,265.973 431.427,266.973 431.5,268.5C 427.984,271.164 425.15,274.497 423,278.5C 420.854,283.465 418.687,288.465 416.5,293.5C 413.226,297.334 410.059,297.334 407,293.5C 403.846,285.026 400.513,276.693 397,268.5C 389.144,260.174 381.811,260.508 375,269.5C 370.822,276.523 367.155,283.857 364,291.5C 360.971,295.497 358.137,295.33 355.5,291C 352.38,286.256 350.213,281.089 349,275.5C 345.264,271.259 341.097,267.592 336.5,264.5C 333.887,263.007 331.887,263.674 330.5,266.5C 329.759,270.172 328.593,273.839 327,277.5C 326.255,278.99 325.088,279.99 323.5,280.5C 314.665,273.84 305.665,267.34 296.5,261C 282.025,257.313 268.692,259.647 256.5,268C 251.615,273.388 246.282,278.221 240.5,282.5C 238.884,281.885 237.551,280.885 236.5,279.5C 234.906,275.299 232.572,271.632 229.5,268.5C 229.608,266.486 228.942,264.82 227.5,263.5C 232.322,264.775 235.655,267.775 237.5,272.5C 238.929,273.935 240.595,274.935 242.5,275.5C 247.664,271.175 252.998,267.008 258.5,263C 273.503,255.241 288.836,254.574 304.5,261C 309.313,264.49 314.48,267.323 320,269.5C 323.575,267.629 327.075,265.629 330.5,263.5C 336.185,261.936 341.185,263.102 345.5,267C 349.391,271.893 352.891,277.06 356,282.5C 358.667,285.167 361.333,285.167 364,282.5C 366.834,275.999 370.667,270.166 375.5,265C 384.932,259.264 393.099,260.764 400,269.5C 402.86,275.081 405.526,280.748 408,286.5C 408.739,287.574 409.739,288.241 411,288.5C 413.281,287.224 415.281,285.557 417,283.5C 418.82,278.348 421.486,273.681 425,269.5C 427.478,267.18 430.311,265.514 433.5,264.5 Z"/></g>
<g><path style="opacity:1" fill="#343700" d="M 162.5,269.5 C 162.477,273.542 161.311,277.208 159,280.5C 158.174,289.913 156.84,299.246 155,308.5C 154.08,312.263 152.58,315.763 150.5,319C 148.833,319.667 147.167,319.667 145.5,319C 144.167,317.333 142.833,315.667 141.5,314C 131.788,307.419 121.121,302.752 109.5,300C 98.9917,289.18 100.992,281.68 115.5,277.5C 122.929,279.95 129.596,283.784 135.5,289C 137.387,289.78 139.054,289.613 140.5,288.5C 143.979,285.448 144.313,282.114 141.5,278.5C 141.509,276.692 141.009,275.025 140,273.5C 137.366,270.375 134.866,267.208 132.5,264C 126.395,262.407 120.228,261.24 114,260.5C 108.697,259.759 104.53,261.425 101.5,265.5C 100.486,266.674 99.153,267.34 97.5,267.5C 95.0372,267.781 92.8705,268.781 91,270.5C 89.7259,273.939 88.2259,277.272 86.5,280.5C 85.8826,280.611 85.3826,280.944 85,281.5C 82.4781,295.341 86.3114,306.841 96.5,316C 102.1,320.299 108.433,322.632 115.5,323C 125.735,327.279 128.068,334.112 122.5,343.5C 117.834,347.313 112.5,348.479 106.5,347C 101.923,344.893 98.2566,341.726 95.5,337.5C 93.604,336.534 91.604,336.201 89.5,336.5C 90.6591,334.623 92.3258,334.123 94.5,335C 98.2728,336.813 101.939,338.813 105.5,341C 110.289,343.096 114.956,342.929 119.5,340.5C 123.814,336.285 123.481,332.452 118.5,329C 111.462,324.317 103.795,320.984 95.5,319C 91.9636,315.799 88.7969,312.299 86,308.5C 85.4079,304.724 84.4079,301.057 83,297.5C 79.9825,278.871 87.3159,266.204 105,259.5C 117.94,256.543 129.773,258.876 140.5,266.5C 145.261,271.855 148.261,278.021 149.5,285C 146.833,287 144.167,289 141.5,291C 132.974,293.235 126.974,290.402 123.5,282.5C 118.139,279.902 112.805,279.902 107.5,282.5C 103.342,288.698 104.342,293.865 110.5,298C 119.453,300.541 128.12,303.874 136.5,308C 140.024,311.025 143.691,313.858 147.5,316.5C 148.672,316.081 149.672,315.415 150.5,314.5C 151.068,311.548 152.234,308.881 154,306.5C 154.863,298.162 155.529,289.829 156,281.5C 157.898,277.258 160.065,273.258 162.5,269.5 Z"/></g>
<g><path style="opacity:1" fill="#eaf331" d="M 171.5,267.5 C 171.5,283.5 171.5,299.5 171.5,315.5C 183.387,314.888 195.054,313.554 206.5,311.5C 212.86,311.932 213.86,314.265 209.5,318.5C 196.816,319.669 184.149,321.002 171.5,322.5C 171.667,333.838 171.5,345.172 171,356.5C 169.644,357.38 168.144,357.714 166.5,357.5C 165.833,357.5 165.5,357.167 165.5,356.5C 165.5,345.5 165.5,334.5 165.5,323.5C 163.833,323.5 162.167,323.5 160.5,323.5C 158.623,322.341 158.123,320.674 159,318.5C 160.699,317.594 162.533,317.261 164.5,317.5C 164.5,300.833 164.5,284.167 164.5,267.5C 166.833,263.5 169.167,263.5 171.5,267.5 Z"/></g>
<g><path style="opacity:1" fill="#e5ee2e" d="M 228.5,355.5 C 227.833,356.167 227.167,356.833 226.5,357.5C 224.856,357.714 223.356,357.38 222,356.5C 221.333,326.5 221.333,296.5 222,266.5C 224,263.833 226,263.833 228,266.5C 228.5,296.165 228.667,325.831 228.5,355.5 Z"/></g>
<g><path style="opacity:1" fill="#eef632" d="M 306.5,272.5 C 311.821,278.139 315.321,284.806 317,292.5C 317.667,305.5 317.667,318.5 317,331.5C 315.955,336.022 314.455,340.356 312.5,344.5C 298.78,360.449 282.446,363.615 263.5,354C 258.927,350.93 255.261,347.096 252.5,342.5C 249.078,332.481 247.745,322.148 248.5,311.5C 248.021,301.966 249.021,292.633 251.5,283.5C 266.238,262.6 284.572,258.934 306.5,272.5 Z"/></g>
<g><path style="opacity:1" fill="#eff833" d="M 336.5,265.5 C 337.167,266.167 337.833,266.833 338.5,267.5C 341.898,281.771 345.898,295.771 350.5,309.5C 354.055,323.401 358.055,337.068 362.5,350.5C 364.949,355.841 363.282,358.175 357.5,357.5C 357.101,353.884 356.101,350.55 354.5,347.5C 347.349,320.877 339.682,294.377 331.5,268C 332.385,265.843 334.052,265.01 336.5,265.5 Z"/></g>
<g><path style="opacity:1" fill="#eff833" d="M 386.5,264.5 C 387.504,265.683 388.338,267.016 389,268.5C 391.391,277.759 394.224,286.759 397.5,295.5C 401.861,312.609 406.695,329.609 412,346.5C 413.043,349.757 413.543,353.09 413.5,356.5C 412.686,358.273 411.352,358.773 409.5,358C 408.578,355.706 407.578,353.539 406.5,351.5C 402.435,335.227 397.769,319.227 392.5,303.5C 390.935,295.565 388.601,287.899 385.5,280.5C 382.389,288.61 380.056,296.943 378.5,305.5C 374.413,316.834 371.079,328.501 368.5,340.5C 365.505,343.347 363.505,342.681 362.5,338.5C 366.66,323.524 370.66,308.524 374.5,293.5C 377.476,284.236 380.476,274.902 383.5,265.5C 384.391,264.89 385.391,264.557 386.5,264.5 Z"/></g>
<g><path style="opacity:1" fill="#eef732" d="M 439.5,266.5 C 432.52,291.086 425.854,315.752 419.5,340.5C 416.15,343.606 414.15,342.939 413.5,338.5C 418.815,319.908 423.815,301.241 428.5,282.5C 430.612,277.068 432.279,271.402 433.5,265.5C 435.901,263.938 437.901,264.271 439.5,266.5 Z"/></g>
<g><path style="opacity:1" fill="#737801" d="M 336.5,264.5 C 336.5,264.833 336.5,265.167 336.5,265.5C 334.052,265.01 332.385,265.843 331.5,268C 339.682,294.377 347.349,320.877 354.5,347.5C 353.304,344.453 351.804,341.453 350,338.5C 343.159,315.784 336.659,293.118 330.5,270.5C 330.5,269.167 330.5,267.833 330.5,266.5C 331.887,263.674 333.887,263.007 336.5,264.5 Z"/></g>
<g><path style="opacity:1" fill="#3c3f00" d="M 330.5,266.5 C 330.5,267.833 330.5,269.167 330.5,270.5C 330.674,282.87 332.841,294.87 337,306.5C 341.791,322.725 347.625,338.391 354.5,353.5C 351.825,350.791 349.158,348.124 346.5,345.5C 342.793,331.883 337.793,318.716 331.5,306C 330.207,305.51 328.873,305.343 327.5,305.5C 326.74,321.871 322.407,337.038 314.5,351C 311.184,352.602 307.851,354.102 304.5,355.5C 306.411,353.083 308.578,350.75 311,348.5C 311.791,347.255 312.291,345.922 312.5,344.5C 315.561,341.903 317.727,338.57 319,334.5C 319.667,319.833 319.667,305.167 319,290.5C 317.926,286.695 316.592,283.029 315,279.5C 312.589,276.583 309.756,274.25 306.5,272.5C 305.646,268.628 303.312,266.128 299.5,265C 286.826,261.14 274.493,261.973 262.5,267.5C 260.981,268.851 259.648,270.351 258.5,272C 257.552,272.483 256.552,272.649 255.5,272.5C 255.649,273.552 255.483,274.552 255,275.5C 251.973,277.86 249.306,280.527 247,283.5C 245.667,290.833 244.333,298.167 243,305.5C 242.456,314.575 243.122,323.575 245,332.5C 245.417,333.756 246.25,334.423 247.5,334.5C 248.6,336.277 249.434,338.277 250,340.5C 250.708,341.381 251.542,342.047 252.5,342.5C 252.508,345.545 252.841,348.545 253.5,351.5C 249.8,345.969 245.3,341.302 240,337.5C 238.893,337.585 237.893,337.919 237,338.5C 234.533,343.413 232.366,348.413 230.5,353.5C 230.385,355.947 229.385,357.947 227.5,359.5C 225.833,359.5 224.167,359.5 222.5,359.5C 222.5,359.167 222.5,358.833 222.5,358.5C 224.099,358.768 225.432,358.434 226.5,357.5C 227.167,356.833 227.833,356.167 228.5,355.5C 230.757,326.678 231.09,297.678 229.5,268.5C 232.572,271.632 234.906,275.299 236.5,279.5C 237.551,280.885 238.884,281.885 240.5,282.5C 246.282,278.221 251.615,273.388 256.5,268C 268.692,259.647 282.025,257.313 296.5,261C 305.665,267.34 314.665,273.84 323.5,280.5C 325.088,279.99 326.255,278.99 327,277.5C 328.593,273.839 329.759,270.172 330.5,266.5 Z"/></g>
<g><path style="opacity:0.016" fill="#bfff00" d="M 472.5,272.5 C 475.768,301.663 470.602,329.33 457,355.5C 450.88,366.123 442.38,374.123 431.5,379.5C 431.932,378.29 432.599,377.29 433.5,376.5C 442.05,372.12 448.883,365.787 454,357.5C 466.959,333.339 472.793,307.673 471.5,280.5C 471.194,277.615 471.527,274.948 472.5,272.5 Z"/></g>
<g><path style="opacity:1" fill="#474a00" d="M 289.5,272.5 C 291.099,272.232 292.432,272.566 293.5,273.5C 297.388,276.037 301.054,279.037 304.5,282.5C 305.426,287.021 306.926,291.355 309,295.5C 309.924,308.89 309.591,322.223 308,335.5C 306.248,338.672 304.248,341.672 302,344.5C 301.586,344.043 301.086,343.709 300.5,343.5C 298.166,347.276 294.833,349.609 290.5,350.5C 286.486,350.666 282.486,350.499 278.5,350C 276.654,348.97 274.987,347.804 273.5,346.5C 283.773,350.616 292.606,348.616 300,340.5C 304.759,332.294 306.592,323.461 305.5,314C 308.61,298.095 303.61,285.762 290.5,277C 280.619,274.427 272.452,276.927 266,284.5C 260.227,293.756 258.061,303.923 259.5,315C 259.192,323.207 260.525,331.041 263.5,338.5C 260.383,336.857 258.55,334.191 258,330.5C 257.333,317.167 257.333,303.833 258,290.5C 261.235,281.599 267.402,275.766 276.5,273C 280.821,272.501 285.154,272.334 289.5,272.5 Z"/></g>
<g><path style="opacity:0.017" fill="#fbff01" d="M 471.5,280.5 C 472.793,307.673 466.959,333.339 454,357.5C 448.883,365.787 442.05,372.12 433.5,376.5C 434.833,374.167 436.167,371.833 437.5,369.5C 455.133,342.27 466.467,312.604 471.5,280.5 Z"/></g>
<g><path style="opacity:1" fill="#383b00" d="M 273.5,346.5 C 271.91,344.766 269.91,343.6 267.5,343C 265.959,341.629 264.625,340.129 263.5,338.5C 260.525,331.041 259.192,323.207 259.5,315C 258.061,303.923 260.227,293.756 266,284.5C 272.452,276.927 280.619,274.427 290.5,277C 303.61,285.762 308.61,298.095 305.5,314C 306.592,323.461 304.759,332.294 300,340.5C 292.606,348.616 283.773,350.616 273.5,346.5 Z"/></g>
<g><path style="opacity:1" fill="#616500" d="M 141.5,278.5 C 144.313,282.114 143.979,285.448 140.5,288.5C 137.675,288.919 135.509,287.919 134,285.5C 132.615,281.777 130.781,278.277 128.5,275C 121.005,272.7 113.338,272.033 105.5,273C 98.5626,278.149 95.7292,284.982 97,293.5C 100.417,298.015 103.917,302.349 107.5,306.5C 115.265,308.224 122.931,310.058 130.5,312C 132.911,313.955 135.411,315.789 138,317.5C 139.411,319.65 140.245,321.984 140.5,324.5C 139.03,322.849 137.697,321.015 136.5,319C 128.359,313.507 119.359,310.173 109.5,309C 98.7343,306.401 93.4009,299.568 93.5,288.5C 95.9181,273.776 104.585,267.609 119.5,270C 128.585,271.42 134.085,276.586 136,285.5C 137.396,287.527 139.062,287.86 141,286.5C 141.497,283.854 141.664,281.187 141.5,278.5 Z"/></g>
<g><path style="opacity:1" fill="#4f5300" d="M 306.5,272.5 C 284.572,258.934 266.238,262.6 251.5,283.5C 250.21,284.058 249.377,285.058 249,286.5C 247.596,302.457 247.096,318.457 247.5,334.5C 246.25,334.423 245.417,333.756 245,332.5C 243.122,323.575 242.456,314.575 243,305.5C 244.333,298.167 245.667,290.833 247,283.5C 249.306,280.527 251.973,277.86 255,275.5C 255.483,274.552 255.649,273.552 255.5,272.5C 256.552,272.649 257.552,272.483 258.5,272C 259.648,270.351 260.981,268.851 262.5,267.5C 274.493,261.973 286.826,261.14 299.5,265C 303.312,266.128 305.646,268.628 306.5,272.5 Z"/></g>
<g><path style="opacity:1" fill="#292b00" d="M 441.5,266.5 C 444.33,271.331 445.163,276.665 444,282.5C 440.967,297.966 437.3,313.299 433,328.5C 430.554,335.393 427.554,342.06 424,348.5C 421.972,351.692 419.472,354.359 416.5,356.5C 419.267,349.651 423.101,343.318 428,337.5C 428.803,334.756 429.803,332.089 431,329.5C 434.463,314.516 437.796,299.516 441,284.5C 441.499,278.509 441.666,272.509 441.5,266.5 Z"/></g>
<g><path style="opacity:1" fill="#707500" d="M 251.5,283.5 C 249.021,292.633 248.021,301.966 248.5,311.5C 247.745,322.148 249.078,332.481 252.5,342.5C 251.542,342.047 250.708,341.381 250,340.5C 249.434,338.277 248.6,336.277 247.5,334.5C 247.096,318.457 247.596,302.457 249,286.5C 249.377,285.058 250.21,284.058 251.5,283.5 Z"/></g>
<g><path style="opacity:1" fill="#2a2d00" d="M 277.5,281.5 C 290.951,279.44 299.117,285.106 302,298.5C 302.87,308.885 302.536,319.218 301,329.5C 299.204,335.626 295.371,339.793 289.5,342C 274.953,345.121 266.786,339.288 265,324.5C 264.097,313.774 264.431,303.107 266,292.5C 268.412,287.252 272.246,283.586 277.5,281.5 Z"/></g>
<g><path style="opacity:1" fill="#212200" d="M 280.5,284.5 C 286.346,284.164 291.18,286.164 295,290.5C 300.596,304.384 300.929,318.384 296,332.5C 290.212,339.879 283.045,341.379 274.5,337C 271.718,333.673 269.885,329.839 269,325.5C 268.101,315.107 268.434,304.773 270,294.5C 270.795,292.099 271.962,289.932 273.5,288C 275.925,286.787 278.259,285.621 280.5,284.5 Z"/></g>
<g><path style="opacity:1" fill="#1a1b00" d="M 282.5,287.5 C 289.852,288.686 294.018,293.019 295,300.5C 295.667,308.833 295.667,317.167 295,325.5C 293.102,335.866 287.269,339.033 277.5,335C 273.953,332.406 272.119,328.906 272,324.5C 271.135,314.448 271.469,304.448 273,294.5C 275.121,290.644 278.288,288.311 282.5,287.5 Z"/></g>
<g><path style="opacity:1" fill="#3d4000" d="M 431.5,268.5 C 427.086,278.895 423.419,289.562 420.5,300.5C 419.5,301.833 418.5,303.167 417.5,304.5C 417.846,305.696 418.346,305.696 419,304.5C 418.589,308.594 416.256,311.261 412,312.5C 408.74,311.402 406.24,309.402 404.5,306.5C 403.875,301.369 402.708,296.369 401,291.5C 397.076,283.314 393.409,274.981 390,266.5C 389.184,265.177 388.017,264.511 386.5,264.5C 385.391,264.557 384.391,264.89 383.5,265.5C 381.983,265.511 380.816,266.177 380,267.5C 373.851,278.95 369.851,291.283 368,304.5C 365.149,313.21 360.482,314.543 354,308.5C 351.334,301.82 348.667,295.154 346,288.5C 345.29,280.618 342.79,273.618 338.5,267.5C 337.833,266.833 337.167,266.167 336.5,265.5C 336.5,265.167 336.5,264.833 336.5,264.5C 341.097,267.592 345.264,271.259 349,275.5C 350.213,281.089 352.38,286.256 355.5,291C 358.137,295.33 360.971,295.497 364,291.5C 367.155,283.857 370.822,276.523 375,269.5C 381.811,260.508 389.144,260.174 397,268.5C 400.513,276.693 403.846,285.026 407,293.5C 410.059,297.334 413.226,297.334 416.5,293.5C 418.687,288.465 420.854,283.465 423,278.5C 425.15,274.497 427.984,271.164 431.5,268.5 Z"/></g>
<g><path style="opacity:1" fill="#7e8400" d="M 392.5,303.5 C 391.262,301.786 390.595,299.786 390.5,297.5C 388.181,296.833 385.847,296.666 383.5,297C 382.197,300.191 380.53,303.024 378.5,305.5C 380.056,296.943 382.389,288.61 385.5,280.5C 388.601,287.899 390.935,295.565 392.5,303.5 Z"/></g>
<g><path style="opacity:1" fill="#515500" d="M 227.5,263.5 C 228.942,264.82 229.608,266.486 229.5,268.5C 231.09,297.678 230.757,326.678 228.5,355.5C 228.667,325.831 228.5,296.165 228,266.5C 226,263.833 224,263.833 222,266.5C 221.333,296.5 221.333,326.5 222,356.5C 223.356,357.38 224.856,357.714 226.5,357.5C 225.432,358.434 224.099,358.768 222.5,358.5C 221.5,358.167 220.833,357.5 220.5,356.5C 219.003,346.508 217.503,336.508 216,326.5C 214.681,324.513 212.848,323.346 210.5,323C 203.469,323.003 196.469,323.67 189.5,325C 184.302,328.838 179.636,333.338 175.5,338.5C 174.365,341.582 173.365,344.582 172.5,347.5C 172.403,339.809 172.737,332.142 173.5,324.5C 184.478,323.194 195.478,322.027 206.5,321C 208.119,320.764 209.119,319.931 209.5,318.5C 213.86,314.265 212.86,311.932 206.5,311.5C 199.321,311.525 192.154,311.858 185,312.5C 178.018,314.023 174.018,311.357 173,304.5C 172.5,293.505 172.333,282.505 172.5,271.5C 173.33,281.992 173.83,292.659 174,303.5C 177.512,307.839 182.012,310.506 187.5,311.5C 195.318,311.217 202.985,310.05 210.5,308C 215.3,303.621 217.8,298.121 218,291.5C 218.478,284.159 218.978,276.826 219.5,269.5C 220.127,264.881 222.794,262.881 227.5,263.5 Z"/></g>
<g><path style="opacity:1" fill="#3a3d00" d="M 165.5,263.5 C 168.652,262.959 171.152,263.959 173,266.5C 177.357,275.613 179.69,285.279 180,295.5C 181.442,299.275 183.942,302.108 187.5,304C 192.833,304.667 198.167,304.667 203.5,304C 207.896,303.27 210.73,300.77 212,296.5C 212.927,289.415 214.26,282.415 216,275.5C 216.941,273.273 218.108,271.273 219.5,269.5C 218.978,276.826 218.478,284.159 218,291.5C 217.8,298.121 215.3,303.621 210.5,308C 202.985,310.05 195.318,311.217 187.5,311.5C 182.012,310.506 177.512,307.839 174,303.5C 173.83,292.659 173.33,281.992 172.5,271.5C 172.768,269.901 172.434,268.568 171.5,267.5C 169.167,263.5 166.833,263.5 164.5,267.5C 164.167,267.5 163.833,267.5 163.5,267.5C 163.733,265.938 164.4,264.605 165.5,263.5 Z"/></g>
<g><path style="opacity:1" fill="#545800" d="M 383.5,265.5 C 380.476,274.902 377.476,284.236 374.5,293.5C 373.21,294.058 372.377,295.058 372,296.5C 370.263,300.661 369.263,304.995 369,309.5C 367.226,311.651 365.726,313.984 364.5,316.5C 361.303,318.574 357.969,318.907 354.5,317.5C 353.696,314.558 352.362,311.891 350.5,309.5C 345.898,295.771 341.898,281.771 338.5,267.5C 342.79,273.618 345.29,280.618 346,288.5C 348.667,295.154 351.334,301.82 354,308.5C 360.482,314.543 365.149,313.21 368,304.5C 369.851,291.283 373.851,278.95 380,267.5C 380.816,266.177 381.983,265.511 383.5,265.5 Z"/></g>
<g><path style="opacity:0.005" fill="#feff00" d="M 34.5,305.5 C 46.268,346.377 67.268,381.71 97.5,411.5C 66.153,406.654 47.3197,388.654 41,357.5C 38.0698,340.254 35.9032,322.921 34.5,305.5 Z"/></g>
<g><path style="opacity:1" fill="#515500" d="M 386.5,264.5 C 388.017,264.511 389.184,265.177 390,266.5C 393.409,274.981 397.076,283.314 401,291.5C 402.708,296.369 403.875,301.369 404.5,306.5C 406.24,309.402 408.74,311.402 412,312.5C 416.256,311.261 418.589,308.594 419,304.5C 418.346,305.696 417.846,305.696 417.5,304.5C 418.5,303.167 419.5,301.833 420.5,300.5C 423.419,289.562 427.086,278.895 431.5,268.5C 431.427,266.973 432.094,265.973 433.5,265.5C 432.279,271.402 430.612,277.068 428.5,282.5C 425.345,291.76 422.179,301.093 419,310.5C 418.059,314.478 417.226,318.478 416.5,322.5C 415.167,324.5 413.5,326.167 411.5,327.5C 409.912,326.99 408.745,325.99 408,324.5C 403.962,316.688 401.629,308.354 401,299.5C 399.45,298.409 398.283,297.076 397.5,295.5C 394.224,286.759 391.391,277.759 389,268.5C 388.338,267.016 387.504,265.683 386.5,264.5 Z"/></g>
<g><path style="opacity:1" fill="#383b00" d="M 438.5,263.5 C 440.5,263.5 441.5,264.5 441.5,266.5C 441.666,272.509 441.499,278.509 441,284.5C 437.796,299.516 434.463,314.516 431,329.5C 429.803,332.089 428.803,334.756 428,337.5C 423.101,343.318 419.267,349.651 416.5,356.5C 416.5,357.167 416.167,357.5 415.5,357.5C 415.336,354.813 415.503,352.146 416,349.5C 418.06,346.714 419.56,343.714 420.5,340.5C 423.56,335.664 425.727,330.33 427,324.5C 430.313,307.563 434.646,290.896 440,274.5C 440.801,271.633 440.634,268.966 439.5,266.5C 437.901,264.271 435.901,263.938 433.5,265.5C 433.5,265.167 433.5,264.833 433.5,264.5C 434.919,263.549 436.585,263.216 438.5,263.5 Z"/></g>
<g><path style="opacity:1" fill="#606500" d="M 392.5,303.5 C 397.769,319.227 402.435,335.227 406.5,351.5C 400.185,342.061 396.518,331.561 395.5,320C 393.933,316.43 391.6,313.43 388.5,311C 385.743,310.218 383.243,310.718 381,312.5C 376.228,321.637 372.061,330.971 368.5,340.5C 371.079,328.501 374.413,316.834 378.5,305.5C 380.53,303.024 382.197,300.191 383.5,297C 385.847,296.666 388.181,296.833 390.5,297.5C 390.595,299.786 391.262,301.786 392.5,303.5 Z"/></g>
<g><path style="opacity:1" fill="#606400" d="M 163.5,267.5 C 163.833,267.5 164.167,267.5 164.5,267.5C 164.5,284.167 164.5,300.833 164.5,317.5C 162.533,317.261 160.699,317.594 159,318.5C 158.123,320.674 158.623,322.341 160.5,323.5C 161.568,324.434 162.901,324.768 164.5,324.5C 164.5,334.833 164.5,345.167 164.5,355.5C 163.506,345.681 163.173,335.681 163.5,325.5C 161.139,325.326 158.806,324.993 156.5,324.5C 156.336,321.813 156.503,319.146 157,316.5C 159.466,311.768 161.133,306.768 162,301.5C 163.259,290.203 163.759,278.869 163.5,267.5 Z"/></g>
<g><path style="opacity:1" fill="#6c7200" d="M 171.5,267.5 C 172.434,268.568 172.768,269.901 172.5,271.5C 172.333,282.505 172.5,293.505 173,304.5C 174.018,311.357 178.018,314.023 185,312.5C 192.154,311.858 199.321,311.525 206.5,311.5C 195.054,313.554 183.387,314.888 171.5,315.5C 171.5,299.5 171.5,283.5 171.5,267.5 Z"/></g>
<g><path style="opacity:1" fill="#232400" d="M 438.5,263.5 C 436.585,263.216 434.919,263.549 433.5,264.5C 430.311,265.514 427.478,267.18 425,269.5C 421.486,273.681 418.82,278.348 417,283.5C 415.281,285.557 413.281,287.224 411,288.5C 409.739,288.241 408.739,287.574 408,286.5C 405.526,280.748 402.86,275.081 400,269.5C 393.099,260.764 384.932,259.264 375.5,265C 370.667,270.166 366.834,275.999 364,282.5C 361.333,285.167 358.667,285.167 356,282.5C 352.891,277.06 349.391,271.893 345.5,267C 341.185,263.102 336.185,261.936 330.5,263.5C 327.075,265.629 323.575,267.629 320,269.5C 314.48,267.323 309.313,264.49 304.5,261C 288.836,254.574 273.503,255.241 258.5,263C 252.998,267.008 247.664,271.175 242.5,275.5C 240.595,274.935 238.929,273.935 237.5,272.5C 235.655,267.775 232.322,264.775 227.5,263.5C 222.794,262.881 220.127,264.881 219.5,269.5C 218.108,271.273 216.941,273.273 216,275.5C 214.26,282.415 212.927,289.415 212,296.5C 210.73,300.77 207.896,303.27 203.5,304C 198.167,304.667 192.833,304.667 187.5,304C 183.942,302.108 181.442,299.275 180,295.5C 179.69,285.279 177.357,275.613 173,266.5C 171.152,263.959 168.652,262.959 165.5,263.5C 160.951,265.379 157.284,268.379 154.5,272.5C 152.088,273.818 149.754,273.651 147.5,272C 132.841,254.303 115.174,250.636 94.5,261C 80.7184,271.271 76.0518,284.771 80.5,301.5C 82.1504,303.95 83.3171,306.617 84,309.5C 91.4184,319.935 101.252,326.769 113.5,330C 115.562,331.532 116.896,333.532 117.5,336C 114.367,337.57 111.033,337.903 107.5,337C 100.142,331.037 92.975,331.204 86,337.5C 83.8777,343.287 84.2111,348.953 87,354.5C 90.819,359.167 95.319,362.834 100.5,365.5C 88.1733,361.678 82.3399,353.345 83,340.5C 83.4709,338.754 84.1376,337.087 85,335.5C 88.5931,332.618 92.0931,329.618 95.5,326.5C 88.5641,319.074 83.0641,310.74 79,301.5C 74.2581,272.912 86.2581,256.912 115,253.5C 122.278,253.704 129.111,255.537 135.5,259C 140.993,262.339 146.326,265.839 151.5,269.5C 155.681,266.838 160.014,264.338 164.5,262C 170.809,260.881 175.643,263.047 179,268.5C 180,270.5 181,272.5 182,274.5C 183.724,281.598 185.89,288.598 188.5,295.5C 193.131,296.662 197.798,296.828 202.5,296C 203.333,295.167 204.167,294.333 205,293.5C 207.068,285.349 209.735,277.349 213,269.5C 217.595,261.792 224.095,259.625 232.5,263C 235.128,266.464 238.461,268.964 242.5,270.5C 249.292,266.936 255.959,263.102 262.5,259C 280.999,251.557 298.332,253.557 314.5,265C 316.698,265.373 318.865,265.873 321,266.5C 324.177,264.65 327.343,262.817 330.5,261C 335.94,259.826 340.94,260.826 345.5,264C 349.764,267.928 353.264,272.428 356,277.5C 359.135,280.257 361.969,279.923 364.5,276.5C 367.232,271.526 370.566,267.026 374.5,263C 382.417,258.116 390.083,258.449 397.5,264C 401.481,267.82 404.481,272.32 406.5,277.5C 407.905,279.651 409.739,281.318 412,282.5C 417.482,275.717 423.315,269.217 429.5,263C 432.696,262.195 435.696,262.362 438.5,263.5 Z"/></g>
<g><path style="opacity:1" fill="#3d4000" d="M 163.5,267.5 C 163.759,278.869 163.259,290.203 162,301.5C 161.133,306.768 159.466,311.768 157,316.5C 156.503,319.146 156.336,321.813 156.5,324.5C 158.806,324.993 161.139,325.326 163.5,325.5C 163.173,335.681 163.506,345.681 164.5,355.5C 164.5,356.167 164.833,356.5 165.5,356.5C 165.5,357.167 165.833,357.5 166.5,357.5C 167.209,358.404 168.209,358.737 169.5,358.5C 167.395,359.819 165.395,359.486 163.5,357.5C 159.982,353.801 157.482,349.467 156,344.5C 154.981,343.313 153.814,342.313 152.5,341.5C 147.648,346.517 142.982,351.684 138.5,357C 126.949,364.92 114.616,366.42 101.5,361.5C 99.5635,360.046 97.8968,358.379 96.5,356.5C 112.946,364.964 127.779,362.631 141,349.5C 143.228,341.975 143.895,334.308 143,326.5C 142.292,325.619 141.458,324.953 140.5,324.5C 140.245,321.984 139.411,319.65 138,317.5C 135.411,315.789 132.911,313.955 130.5,312C 122.931,310.058 115.265,308.224 107.5,306.5C 103.917,302.349 100.417,298.015 97,293.5C 95.7292,284.982 98.5626,278.149 105.5,273C 113.338,272.033 121.005,272.7 128.5,275C 130.781,278.277 132.615,281.777 134,285.5C 135.509,287.919 137.675,288.919 140.5,288.5C 139.054,289.613 137.387,289.78 135.5,289C 129.596,283.784 122.929,279.95 115.5,277.5C 100.992,281.68 98.9917,289.18 109.5,300C 121.121,302.752 131.788,307.419 141.5,314C 142.833,315.667 144.167,317.333 145.5,319C 147.167,319.667 148.833,319.667 150.5,319C 152.58,315.763 154.08,312.263 155,308.5C 156.84,299.246 158.174,289.913 159,280.5C 161.311,277.208 162.477,273.542 162.5,269.5C 162.328,268.508 162.662,267.842 163.5,267.5 Z"/></g>
<g><path style="opacity:1" fill="#282a00" d="M 165.5,263.5 C 164.4,264.605 163.733,265.938 163.5,267.5C 162.662,267.842 162.328,268.508 162.5,269.5C 160.065,273.258 157.898,277.258 156,281.5C 155.529,289.829 154.863,298.162 154,306.5C 152.234,308.881 151.068,311.548 150.5,314.5C 149.672,315.415 148.672,316.081 147.5,316.5C 143.691,313.858 140.024,311.025 136.5,308C 128.12,303.874 119.453,300.541 110.5,298C 104.342,293.865 103.342,288.698 107.5,282.5C 112.805,279.902 118.139,279.902 123.5,282.5C 126.974,290.402 132.974,293.235 141.5,291C 144.167,289 146.833,287 149.5,285C 148.261,278.021 145.261,271.855 140.5,266.5C 129.773,258.876 117.94,256.543 105,259.5C 87.3159,266.204 79.9825,278.871 83,297.5C 84.4079,301.057 85.4079,304.724 86,308.5C 88.7969,312.299 91.9636,315.799 95.5,319C 103.795,320.984 111.462,324.317 118.5,329C 123.481,332.452 123.814,336.285 119.5,340.5C 114.956,342.929 110.289,343.096 105.5,341C 101.939,338.813 98.2728,336.813 94.5,335C 92.3258,334.123 90.6591,334.623 89.5,336.5C 88.0069,337.312 87.3402,338.645 87.5,340.5C 87.555,343.36 88.555,345.693 90.5,347.5C 90.2644,352.037 92.2644,355.037 96.5,356.5C 97.8968,358.379 99.5635,360.046 101.5,361.5C 114.616,366.42 126.949,364.92 138.5,357C 142.982,351.684 147.648,346.517 152.5,341.5C 153.814,342.313 154.981,343.313 156,344.5C 157.482,349.467 159.982,353.801 163.5,357.5C 165.395,359.486 167.395,359.819 169.5,358.5C 170.609,358.443 171.609,358.11 172.5,357.5C 175.992,352.83 178.159,347.497 179,341.5C 180.409,338.418 182.242,335.585 184.5,333C 192.068,329.109 200.068,327.775 208.5,329C 212.64,333.616 214.807,339.116 215,345.5C 216.572,349.437 218.405,353.104 220.5,356.5C 220.833,357.5 221.5,358.167 222.5,358.5C 222.5,358.833 222.5,359.167 222.5,359.5C 218.638,358.476 215.805,356.143 214,352.5C 211.73,347.356 210.063,342.022 209,336.5C 207.114,333.161 204.281,331.827 200.5,332.5C 193.016,331.829 187.183,334.495 183,340.5C 182.097,348.818 178.263,355.318 171.5,360C 169.167,360.667 166.833,360.667 164.5,360C 160.13,357.153 155.797,354.32 151.5,351.5C 146.356,354.814 141.356,358.314 136.5,362C 124.977,367.887 112.977,369.054 100.5,365.5C 95.319,362.834 90.819,359.167 87,354.5C 84.2111,348.953 83.8777,343.287 86,337.5C 92.975,331.204 100.142,331.037 107.5,337C 111.033,337.903 114.367,337.57 117.5,336C 116.896,333.532 115.562,331.532 113.5,330C 101.252,326.769 91.4184,319.935 84,309.5C 83.3171,306.617 82.1504,303.95 80.5,301.5C 76.0518,284.771 80.7184,271.271 94.5,261C 115.174,250.636 132.841,254.303 147.5,272C 149.754,273.651 152.088,273.818 154.5,272.5C 157.284,268.379 160.951,265.379 165.5,263.5 Z"/></g>
<g><path style="opacity:1" fill="#656a00" d="M 97.5,267.5 C 88.6213,275.132 85.288,284.799 87.5,296.5C 86.1952,294.603 85.5286,292.269 85.5,289.5C 85.5979,286.449 85.9312,283.449 86.5,280.5C 88.2259,277.272 89.7259,273.939 91,270.5C 92.8705,268.781 95.0372,267.781 97.5,267.5 Z"/></g>
<g><path style="opacity:1" fill="#525600" d="M 141.5,278.5 C 139.544,275.461 137.21,272.628 134.5,270C 124.213,263.392 113.213,261.892 101.5,265.5C 104.53,261.425 108.697,259.759 114,260.5C 120.228,261.24 126.395,262.407 132.5,264C 134.866,267.208 137.366,270.375 140,273.5C 141.009,275.025 141.509,276.692 141.5,278.5 Z"/></g>
<g><path style="opacity:1" fill="#797e00" d="M 107.5,315.5 C 112.959,316.031 118.292,317.198 123.5,319C 134.734,323.621 138.067,331.454 133.5,342.5C 133.839,337.07 133.339,331.736 132,326.5C 130.062,323.894 127.562,322.061 124.5,321C 118.559,319.641 112.892,317.808 107.5,315.5 Z"/></g>
<g><path style="opacity:1" fill="#676c00" d="M 374.5,293.5 C 370.66,308.524 366.66,323.524 362.5,338.5C 363.505,342.681 365.505,343.347 368.5,340.5C 368.586,341.496 368.252,342.329 367.5,343C 365.866,343.494 364.199,343.66 362.5,343.5C 362.5,345.833 362.5,348.167 362.5,350.5C 358.055,337.068 354.055,323.401 350.5,309.5C 352.362,311.891 353.696,314.558 354.5,317.5C 357.969,318.907 361.303,318.574 364.5,316.5C 365.726,313.984 367.226,311.651 369,309.5C 369.263,304.995 370.263,300.661 372,296.5C 372.377,295.058 373.21,294.058 374.5,293.5 Z"/></g>
<g><path style="opacity:1" fill="#767c01" d="M 293.5,273.5 C 301.754,275.92 307.254,281.253 310,289.5C 311.589,302.443 311.922,315.443 311,328.5C 309.201,340.826 302.368,348.493 290.5,351.5C 290.5,351.167 290.5,350.833 290.5,350.5C 294.833,349.609 298.166,347.276 300.5,343.5C 301.086,343.709 301.586,344.043 302,344.5C 304.248,341.672 306.248,338.672 308,335.5C 309.591,322.223 309.924,308.89 309,295.5C 306.926,291.355 305.426,287.021 304.5,282.5C 301.054,279.037 297.388,276.037 293.5,273.5 Z"/></g>
<g><path style="opacity:1" fill="#606400" d="M 439.5,266.5 C 440.634,268.966 440.801,271.633 440,274.5C 434.646,290.896 430.313,307.563 427,324.5C 425.727,330.33 423.56,335.664 420.5,340.5C 420.167,340.5 419.833,340.5 419.5,340.5C 425.854,315.752 432.52,291.086 439.5,266.5 Z"/></g>
<g><path style="opacity:1" fill="#292b00" d="M 346.5,345.5 C 349.158,348.124 351.825,350.791 354.5,353.5C 355.167,355.167 355.833,356.833 356.5,358.5C 354.215,357.069 351.715,356.069 349,355.5C 344.201,348.532 340.034,341.199 336.5,333.5C 334.703,331.248 332.37,330.248 329.5,330.5C 322.189,353.63 306.355,366.296 282,368.5C 277.49,367.721 272.99,366.887 268.5,366C 264.535,364.007 260.535,362.007 256.5,360C 251.943,355.772 247.11,351.939 242,348.5C 237.888,350.943 234.388,354.109 231.5,358C 230.255,358.791 228.922,359.291 227.5,359.5C 229.385,357.947 230.385,355.947 230.5,353.5C 233.521,350.634 236.021,347.3 238,343.5C 240.794,342.154 243.294,342.654 245.5,345C 249.514,349.081 253.181,353.414 256.5,358C 283.266,372.975 305.266,367.808 322.5,342.5C 324.417,333.224 327.084,324.224 330.5,315.5C 332.167,316.833 333.833,318.167 335.5,319.5C 339.575,328.076 343.241,336.742 346.5,345.5 Z"/></g>
<g><path style="opacity:1" fill="#393b00" d="M 220.5,356.5 C 218.405,353.104 216.572,349.437 215,345.5C 214.807,339.116 212.64,333.616 208.5,329C 200.068,327.775 192.068,329.109 184.5,333C 182.242,335.585 180.409,338.418 179,341.5C 178.159,347.497 175.992,352.83 172.5,357.5C 172.5,354.167 172.5,350.833 172.5,347.5C 173.365,344.582 174.365,341.582 175.5,338.5C 179.636,333.338 184.302,328.838 189.5,325C 196.469,323.67 203.469,323.003 210.5,323C 212.848,323.346 214.681,324.513 216,326.5C 217.503,336.508 219.003,346.508 220.5,356.5 Z"/></g>
<g><path style="opacity:1" fill="#707600" d="M 209.5,318.5 C 209.119,319.931 208.119,320.764 206.5,321C 195.478,322.027 184.478,323.194 173.5,324.5C 172.737,332.142 172.403,339.809 172.5,347.5C 172.5,350.833 172.5,354.167 172.5,357.5C 171.609,358.11 170.609,358.443 169.5,358.5C 168.209,358.737 167.209,358.404 166.5,357.5C 168.144,357.714 169.644,357.38 171,356.5C 171.5,345.172 171.667,333.838 171.5,322.5C 184.149,321.002 196.816,319.669 209.5,318.5 Z"/></g>
<g><path style="opacity:1" fill="#484c00" d="M 330.5,270.5 C 336.659,293.118 343.159,315.784 350,338.5C 351.804,341.453 353.304,344.453 354.5,347.5C 356.101,350.55 357.101,353.884 357.5,357.5C 363.282,358.175 364.949,355.841 362.5,350.5C 362.5,348.167 362.5,345.833 362.5,343.5C 364.199,343.66 365.866,343.494 367.5,343C 368.252,342.329 368.586,341.496 368.5,340.5C 372.061,330.971 376.228,321.637 381,312.5C 383.243,310.718 385.743,310.218 388.5,311C 391.6,313.43 393.933,316.43 395.5,320C 396.518,331.561 400.185,342.061 406.5,351.5C 407.578,353.539 408.578,355.706 409.5,358C 411.352,358.773 412.686,358.273 413.5,356.5C 414.483,352.702 414.817,348.702 414.5,344.5C 417.367,344.631 419.033,343.297 419.5,340.5C 419.833,340.5 420.167,340.5 420.5,340.5C 419.56,343.714 418.06,346.714 416,349.5C 415.503,352.146 415.336,354.813 415.5,357.5C 414.5,357.833 413.833,358.5 413.5,359.5C 411.833,359.5 410.167,359.5 408.5,359.5C 407.248,357.999 406.248,356.332 405.5,354.5C 400.441,345.007 396.274,335.007 393,324.5C 391.374,321.872 389.374,319.539 387,317.5C 384.132,318.361 381.798,320.028 380,322.5C 376.709,329.714 373.042,336.714 369,343.5C 367.89,345.037 366.39,345.703 364.5,345.5C 364.5,349.167 364.5,352.833 364.5,356.5C 363.833,357.5 363.167,358.5 362.5,359.5C 360.379,359.675 358.379,359.341 356.5,358.5C 355.833,356.833 355.167,355.167 354.5,353.5C 347.625,338.391 341.791,322.725 337,306.5C 332.841,294.87 330.674,282.87 330.5,270.5 Z"/></g>
<g><path style="opacity:1" fill="#3a3d00" d="M 405.5,354.5 C 403.629,354.141 402.129,353.141 401,351.5C 397.783,342.565 393.616,334.065 388.5,326C 386.432,325.313 384.432,325.48 382.5,326.5C 376.414,336.709 370.414,346.709 364.5,356.5C 364.5,352.833 364.5,349.167 364.5,345.5C 366.39,345.703 367.89,345.037 369,343.5C 373.042,336.714 376.709,329.714 380,322.5C 381.798,320.028 384.132,318.361 387,317.5C 389.374,319.539 391.374,321.872 393,324.5C 396.274,335.007 400.441,345.007 405.5,354.5 Z"/></g>
<g><path style="opacity:1" fill="#2c2e00" d="M 405.5,354.5 C 406.248,356.332 407.248,357.999 408.5,359.5C 404.77,358.944 401.603,357.278 399,354.5C 395.037,349.563 391.87,344.229 389.5,338.5C 386.813,338.336 384.146,338.503 381.5,339C 378.333,343.5 375.167,348 372,352.5C 369.499,355.848 366.332,358.182 362.5,359.5C 363.167,358.5 363.833,357.5 364.5,356.5C 370.414,346.709 376.414,336.709 382.5,326.5C 384.432,325.48 386.432,325.313 388.5,326C 393.616,334.065 397.783,342.565 401,351.5C 402.129,353.141 403.629,354.141 405.5,354.5 Z"/></g>
<g><path style="opacity:1" fill="#212200" d="M 356.5,358.5 C 358.379,359.341 360.379,359.675 362.5,359.5C 366.332,358.182 369.499,355.848 372,352.5C 375.167,348 378.333,343.5 381.5,339C 384.146,338.503 386.813,338.336 389.5,338.5C 391.87,344.229 395.037,349.563 399,354.5C 401.603,357.278 404.77,358.944 408.5,359.5C 410.167,359.5 411.833,359.5 413.5,359.5C 407.457,362.129 401.957,360.795 397,355.5C 394.277,352.443 391.944,349.11 390,345.5C 388.333,344.5 386.667,343.5 385,342.5C 383.581,343.46 382.081,344.293 380.5,345C 364.5,367.951 350.333,366.785 338,341.5C 336.333,339.833 334.667,338.167 333,336.5C 329.513,340.142 326.513,344.142 324,348.5C 307.196,368.874 286.363,374.374 261.5,365C 255.517,360.502 249.184,356.669 242.5,353.5C 240.971,353.529 239.804,354.196 239,355.5C 238.667,355.167 238.333,354.833 238,354.5C 229.837,363.778 221.504,363.778 213,354.5C 210.163,349.828 208.163,344.828 207,339.5C 205.212,336.372 202.545,335.039 199,335.5C 195.323,335.628 191.823,336.461 188.5,338C 185.615,342.937 183.115,348.104 181,353.5C 176.464,360.844 169.964,363.344 161.5,361C 158.107,358.637 154.44,356.804 150.5,355.5C 142.946,360.444 134.946,364.611 126.5,368C 117.37,370.52 108.703,369.687 100.5,365.5C 112.977,369.054 124.977,367.887 136.5,362C 141.356,358.314 146.356,354.814 151.5,351.5C 155.797,354.32 160.13,357.153 164.5,360C 166.833,360.667 169.167,360.667 171.5,360C 178.263,355.318 182.097,348.818 183,340.5C 187.183,334.495 193.016,331.829 200.5,332.5C 204.281,331.827 207.114,333.161 209,336.5C 210.063,342.022 211.73,347.356 214,352.5C 215.805,356.143 218.638,358.476 222.5,359.5C 224.167,359.5 225.833,359.5 227.5,359.5C 228.922,359.291 230.255,358.791 231.5,358C 234.388,354.109 237.888,350.943 242,348.5C 247.11,351.939 251.943,355.772 256.5,360C 260.535,362.007 264.535,364.007 268.5,366C 272.99,366.887 277.49,367.721 282,368.5C 306.355,366.296 322.189,353.63 329.5,330.5C 332.37,330.248 334.703,331.248 336.5,333.5C 340.034,341.199 344.201,348.532 349,355.5C 351.715,356.069 354.215,357.069 356.5,358.5 Z"/></g>
<g><path style="opacity:1" fill="#656900" d="M 306.5,272.5 C 309.756,274.25 312.589,276.583 315,279.5C 316.592,283.029 317.926,286.695 319,290.5C 319.667,305.167 319.667,319.833 319,334.5C 317.727,338.57 315.561,341.903 312.5,344.5C 314.455,340.356 315.955,336.022 317,331.5C 317.667,318.5 317.667,305.5 317,292.5C 315.321,284.806 311.821,278.139 306.5,272.5 Z"/></g>
<g><path style="opacity:1" fill="#b6be12" d="M 160.5,323.5 C 162.167,323.5 163.833,323.5 165.5,323.5C 165.5,334.5 165.5,345.5 165.5,356.5C 164.833,356.5 164.5,356.167 164.5,355.5C 164.5,345.167 164.5,334.833 164.5,324.5C 162.901,324.768 161.568,324.434 160.5,323.5 Z"/></g>
<g><path style="opacity:1" fill="#717700" d="M 428.5,282.5 C 423.815,301.241 418.815,319.908 413.5,338.5C 414.15,342.939 416.15,343.606 419.5,340.5C 419.033,343.297 417.367,344.631 414.5,344.5C 414.817,348.702 414.483,352.702 413.5,356.5C 413.543,353.09 413.043,349.757 412,346.5C 406.695,329.609 401.861,312.609 397.5,295.5C 398.283,297.076 399.45,298.409 401,299.5C 401.629,308.354 403.962,316.688 408,324.5C 408.745,325.99 409.912,326.99 411.5,327.5C 413.5,326.167 415.167,324.5 416.5,322.5C 417.226,318.478 418.059,314.478 419,310.5C 422.179,301.093 425.345,291.76 428.5,282.5 Z"/></g>
<g><path style="opacity:1" fill="#5d6100" d="M 289.5,272.5 C 285.154,272.334 280.821,272.501 276.5,273C 267.402,275.766 261.235,281.599 258,290.5C 257.333,303.833 257.333,317.167 258,330.5C 258.55,334.191 260.383,336.857 263.5,338.5C 264.625,340.129 265.959,341.629 267.5,343C 269.91,343.6 271.91,344.766 273.5,346.5C 274.987,347.804 276.654,348.97 278.5,350C 282.486,350.499 286.486,350.666 290.5,350.5C 290.5,350.833 290.5,351.167 290.5,351.5C 272.89,355.606 261.39,348.939 256,331.5C 255.333,318.5 255.333,305.5 256,292.5C 261.374,275.903 272.541,269.236 289.5,272.5 Z"/></g>
<g><path style="opacity:1" fill="#494d00" d="M 86.5,280.5 C 85.9312,283.449 85.5979,286.449 85.5,289.5C 85.5286,292.269 86.1952,294.603 87.5,296.5C 90.894,306.226 97.5607,312.56 107.5,315.5C 112.892,317.808 118.559,319.641 124.5,321C 127.562,322.061 130.062,323.894 132,326.5C 133.339,331.736 133.839,337.07 133.5,342.5C 130.619,345.029 127.619,347.529 124.5,350C 112.004,354.587 102.338,351.42 95.5,340.5C 94.0268,337.59 91.8601,336.923 89,338.5C 88.7488,341.594 89.2488,344.594 90.5,347.5C 88.555,345.693 87.555,343.36 87.5,340.5C 87.3402,338.645 88.0069,337.312 89.5,336.5C 91.604,336.201 93.604,336.534 95.5,337.5C 98.2566,341.726 101.923,344.893 106.5,347C 112.5,348.479 117.834,347.313 122.5,343.5C 128.068,334.112 125.735,327.279 115.5,323C 108.433,322.632 102.1,320.299 96.5,316C 86.3114,306.841 82.4781,295.341 85,281.5C 85.3826,280.944 85.8826,280.611 86.5,280.5 Z"/></g>
<g><path style="opacity:1" fill="#7b8001" d="M 95.5,340.5 C 102.338,351.42 112.004,354.587 124.5,350C 127.619,347.529 130.619,345.029 133.5,342.5C 129.547,349.985 123.213,353.652 114.5,353.5C 104.762,353.82 98.429,349.487 95.5,340.5 Z"/></g>
<g><path style="opacity:1" fill="#5e6300" d="M 140.5,324.5 C 141.458,324.953 142.292,325.619 143,326.5C 143.895,334.308 143.228,341.975 141,349.5C 127.779,362.631 112.946,364.964 96.5,356.5C 92.2644,355.037 90.2644,352.037 90.5,347.5C 96.1262,355.564 103.96,359.564 114,359.5C 135.886,357.775 144.719,346.109 140.5,324.5 Z"/></g>
<g><path style="opacity:1" fill="#343600" d="M 346.5,345.5 C 343.241,336.742 339.575,328.076 335.5,319.5C 333.833,318.167 332.167,316.833 330.5,315.5C 327.084,324.224 324.417,333.224 322.5,342.5C 305.266,367.808 283.266,372.975 256.5,358C 253.181,353.414 249.514,349.081 245.5,345C 243.294,342.654 240.794,342.154 238,343.5C 236.021,347.3 233.521,350.634 230.5,353.5C 232.366,348.413 234.533,343.413 237,338.5C 237.893,337.919 238.893,337.585 240,337.5C 245.3,341.302 249.8,345.969 253.5,351.5C 269.641,363.137 286.641,364.47 304.5,355.5C 307.851,354.102 311.184,352.602 314.5,351C 322.407,337.038 326.74,321.871 327.5,305.5C 328.873,305.343 330.207,305.51 331.5,306C 337.793,318.716 342.793,331.883 346.5,345.5 Z"/></g>
<g><path style="opacity:1" fill="#5a5e00" d="M 252.5,342.5 C 255.261,347.096 258.927,350.93 263.5,354C 282.446,363.615 298.78,360.449 312.5,344.5C 312.291,345.922 311.791,347.255 311,348.5C 308.578,350.75 306.411,353.083 304.5,355.5C 286.641,364.47 269.641,363.137 253.5,351.5C 252.841,348.545 252.508,345.545 252.5,342.5 Z"/></g>
<g><path style="opacity:1" fill="#010100" d="M 415.5,376.5 C 415.5,376.833 415.5,377.167 415.5,377.5C 379.648,421.771 333.314,447.938 276.5,456C 201.462,463.724 139.462,439.224 90.5,382.5C 90.56,381.957 90.8933,381.624 91.5,381.5C 100.429,386.107 109.929,388.44 120,388.5C 138.249,387.146 156.082,383.646 173.5,378C 186.698,374.409 200.032,373.742 213.5,376C 227.495,379.331 241.495,382.665 255.5,386C 270.112,389.829 284.778,390.162 299.5,387C 312.25,382.896 325.25,379.896 338.5,378C 352.669,377.59 366.835,377.756 381,378.5C 392.134,378.82 403.134,377.82 414,375.5C 414.765,375.57 415.265,375.903 415.5,376.5 Z"/></g>
</svg>
